<svg width="425" height="102" viewBox="0 0 425 102" fill="none" xmlns="http://www.w3.org/2000/svg">
<rect y="34" width="336" height="50" fill="#333467"/>
<rect width="336" height="34" fill="white"/>
<path d="M155.386 10.0057V10H128V20.5063H155.386V20.512H160.371L155.386 15.2589L160.371 10.0057H155.386ZM132.683 18.609C131.766 18.609 131.037 18.3184 130.498 17.7259C129.958 17.1391 129.689 16.33 129.689 15.293C129.689 14.6321 129.78 14.0795 129.969 13.6294C130.109 13.2989 130.298 13.0026 130.541 12.7405C130.784 12.4784 131.048 12.2847 131.34 12.1537C131.723 11.9828 132.165 11.8973 132.667 11.8973C133.573 11.8973 134.301 12.1936 134.846 12.7918C135.391 13.3844 135.661 14.2105 135.661 15.2646C135.661 16.3129 135.391 17.1334 134.852 17.7259C134.312 18.3128 133.589 18.609 132.683 18.609ZM139.378 18.609C138.461 18.609 137.733 18.3184 137.193 17.7259C136.648 17.1391 136.379 16.33 136.379 15.293C136.379 14.6321 136.476 14.0795 136.665 13.6294C136.799 13.2989 136.994 13.0026 137.236 12.7405C137.479 12.4784 137.744 12.2847 138.03 12.1537C138.418 11.9828 138.86 11.8973 139.362 11.8973C140.268 11.8973 140.991 12.1936 141.536 12.7918C142.081 13.3844 142.356 14.2105 142.356 15.2646C142.356 16.3129 142.087 17.1334 141.547 17.7259C141.002 18.3128 140.279 18.609 139.378 18.609ZM146.894 18.3811C146.532 18.535 146.09 18.6147 145.556 18.6147C144.773 18.6147 144.175 18.4267 143.759 18.045C143.344 17.6689 143.09 17.1163 143.009 16.387C143.133 16.3756 144.099 16.2787 144.223 16.2673C144.293 16.6946 144.444 17.008 144.666 17.2074C144.887 17.4068 145.189 17.5094 145.566 17.5094C145.966 17.5094 146.268 17.4182 146.473 17.2416C146.672 17.065 146.775 16.8542 146.775 16.6149C146.775 16.461 146.732 16.33 146.646 16.2217C146.565 16.1135 146.414 16.0223 146.198 15.9426C146.052 15.8913 145.723 15.7944 145.205 15.6577C144.536 15.4868 144.072 15.2702 143.802 15.0139C143.425 14.6606 143.236 14.2219 143.236 13.7091C143.236 13.3787 143.322 13.071 143.5 12.7804C143.678 12.4955 143.937 12.2733 144.272 12.1252C144.606 11.9771 145.011 11.8973 145.48 11.8973C146.257 11.8973 146.834 12.0796 147.228 12.4329C147.617 12.7918 147.822 13.2704 147.843 13.863C147.719 13.8686 146.721 13.9199 146.597 13.9256C146.548 13.5895 146.43 13.3502 146.257 13.202C146.084 13.0596 145.82 12.9855 145.469 12.9855C145.108 12.9855 144.822 13.0653 144.622 13.2191C144.487 13.3217 144.423 13.4527 144.423 13.6237C144.423 13.7775 144.482 13.9085 144.606 14.0168C144.763 14.1535 145.146 14.3017 145.75 14.4498C146.354 14.5979 146.802 14.7575 147.093 14.917C147.385 15.0765 147.611 15.2987 147.773 15.5779C147.935 15.8571 148.021 16.199 148.021 16.6092C148.021 16.9795 147.919 17.3328 147.725 17.6575C147.53 17.9823 147.25 18.2216 146.894 18.3811ZM151.695 13.1109V18.5008H150.454V13.1109H148.626V12.0112H153.519V13.1109H151.695Z" fill="#343467"/>
<path fill-rule="evenodd" clip-rule="evenodd" d="M70.6721 9.48285L68.6228 15.058L66.5735 20.6335H67.7004H68.8274H74.8209H75.9766H77.1322L75.0256 15.058L72.9189 9.48285H70.6721Z" fill="#F26F21"/>
<path fill-rule="evenodd" clip-rule="evenodd" d="M6 9.48285H10.2432C11.0828 9.48285 11.7092 9.51962 12.1218 9.59305C12.5346 9.66671 12.9039 9.82014 13.2297 10.0533C13.5556 10.2866 13.8272 10.5972 14.0442 10.9851C14.2614 11.373 14.3701 11.8077 14.3701 12.2895C14.3701 12.8118 14.2363 13.2911 13.9682 13.7271C13.7003 14.1633 13.3372 14.4903 12.8785 14.7083C13.5255 14.906 14.0225 15.2433 14.3701 15.7198C14.7176 16.1965 14.8915 16.7568 14.8915 17.4007C14.8915 17.9079 14.7791 18.4011 14.5547 18.8803C14.3302 19.3593 14.0236 19.7422 13.6351 20.0286C13.2468 20.3152 12.7673 20.4914 12.1979 20.5573C11.8406 20.598 10.9789 20.6233 9.61308 20.6335H6V9.48285Z" fill="#333467"/>
<path fill-rule="evenodd" clip-rule="evenodd" d="M8.22289 11.2435V13.591H9.54231C10.3266 13.591 10.8139 13.5796 11.0044 13.5564C11.3487 13.515 11.6199 13.3937 11.8171 13.1928C12.0142 12.992 12.1129 12.7279 12.1129 12.3999C12.1129 12.0861 12.0278 11.831 11.8579 11.6347C11.6878 11.4387 11.4351 11.3198 11.0995 11.2781C10.9 11.255 10.3266 11.2435 9.37915 11.2435H8.22289Z" fill="#333467"/>
<path fill-rule="evenodd" clip-rule="evenodd" d="M8.22289 15.3516V18.286H10.1688C10.9261 18.286 11.4071 18.2634 11.6105 18.2185C11.9229 18.1586 12.1775 18.0127 12.3738 17.7807C12.5703 17.5486 12.6686 17.238 12.6686 16.8485C12.6686 16.5194 12.593 16.24 12.4413 16.0105C12.2897 15.7808 12.0709 15.6135 11.7844 15.5087C11.4979 15.4039 10.8764 15.3516 9.92029 15.3516H8.22289Z" fill="#333467"/>
<path fill-rule="evenodd" clip-rule="evenodd" d="M16.5587 9.48285H18.6695V15.421C18.6695 16.3634 18.6953 16.974 18.7477 17.2531C18.838 17.702 19.0534 18.0623 19.3931 18.3337C19.733 18.6056 20.1979 18.7413 20.7872 18.7413C21.3861 18.7413 21.838 18.613 22.1421 18.3564C22.4462 18.0996 22.6295 17.7841 22.6912 17.4102C22.7529 17.0363 22.7839 16.4157 22.7839 15.5481V9.48285H24.8945V15.2413C24.8945 16.5576 24.8375 17.4876 24.7234 18.0308C24.6094 18.5744 24.3989 19.0331 24.0924 19.407C23.7857 19.781 23.3757 20.0791 22.8622 20.3008C22.3489 20.5225 21.6786 20.6335 20.8514 20.6335C19.8531 20.6335 19.096 20.5125 18.5802 20.2709C18.0643 20.029 17.6569 19.7149 17.3573 19.3285C17.0577 18.9422 16.8606 18.5371 16.7655 18.1132C16.6275 17.485 16.5587 16.5576 16.5587 15.3312V9.48285Z" fill="#333467"/>
<path fill-rule="evenodd" clip-rule="evenodd" d="M27.1174 9.48285H29.2282V15.421C29.2282 16.3634 29.254 16.974 29.3064 17.2531C29.3966 17.702 29.612 18.0623 29.9518 18.3337C30.2917 18.6056 30.7566 18.7413 31.3459 18.7413C31.9448 18.7413 32.3966 18.613 32.7007 18.3564C33.0049 18.0996 33.1881 17.7841 33.2498 17.4102C33.3115 17.0363 33.3426 16.4157 33.3426 15.5481V9.48285H35.4532V15.2413C35.4532 16.5576 35.3962 17.4876 35.2821 18.0308C35.1681 18.5744 34.9576 19.0331 34.6511 19.407C34.3444 19.781 33.9344 20.0791 33.4209 20.3008C32.9076 20.5225 32.2372 20.6335 31.4101 20.6335C30.4117 20.6335 29.6547 20.5125 29.1389 20.2709C28.623 20.029 28.2156 19.7149 27.916 19.3285C27.6164 18.9422 27.4193 18.5371 27.3242 18.1132C27.1862 17.485 27.1174 16.5576 27.1174 15.3312V9.48285Z" fill="#333467"/>
<path fill-rule="evenodd" clip-rule="evenodd" d="M37.676 20.6335V9.48285H42.1416C43.2644 9.48285 44.0805 9.58302 44.5895 9.78325C45.0984 9.98383 45.506 10.3399 45.8117 10.852C46.1173 11.3641 46.2704 11.9498 46.2704 12.609C46.2704 13.4456 46.0385 14.1367 45.575 14.6817C45.1116 15.2267 44.4185 15.5704 43.4965 15.7124C43.9552 15.9964 44.3339 16.3082 44.6324 16.6478C44.9311 16.9876 45.3338 17.5909 45.8402 18.4581L47.1233 20.6335H44.5858L43.0521 18.207C42.5072 17.3401 42.1345 16.7936 41.9338 16.568C41.733 16.3425 41.5206 16.1877 41.2959 16.104C41.0711 16.0204 40.7151 15.9786 40.2278 15.9786H39.7979V20.6335H37.676Z" fill="#333467"/>
<path fill-rule="evenodd" clip-rule="evenodd" d="M39.8989 14.1778H41.5272C42.5828 14.1778 43.2417 14.1306 43.5046 14.0359C43.7675 13.9412 43.973 13.7782 44.1217 13.5469C44.2704 13.3154 44.3447 13.0262 44.3447 12.679C44.3447 12.2899 44.247 11.976 44.0511 11.7364C43.8551 11.4973 43.5791 11.346 43.2221 11.2828C43.0436 11.2566 42.5084 11.2435 41.6162 11.2435H39.8989V14.1778Z" fill="#333467"/>
<path fill-rule="evenodd" clip-rule="evenodd" d="M50.7915 20.6335V11.3692H47.679V9.48285H56.0148V11.3692H52.9095V20.6335H50.7915Z" fill="#333467"/>
<mask id="mask0_3_67" style="mask-type:alpha" maskUnits="userSpaceOnUse" x="57" y="9" width="10" height="12">
<path fill-rule="evenodd" clip-rule="evenodd" d="M57.17 9H66.3515V20.5108H57.17V9Z" fill="white"/>
</mask>
<g mask="url(#mask0_3_67)">
<path fill-rule="evenodd" clip-rule="evenodd" d="M64.288 16.2285L66.3515 16.9195C66.035 18.1343 65.5093 19.0366 64.7733 19.6262C64.0375 20.2161 63.1041 20.5108 61.9728 20.5108C60.5733 20.5108 59.423 20.006 58.5218 18.996C57.6205 17.9861 57.17 16.6055 57.17 14.8542C57.17 13.0014 57.623 11.5626 58.5289 10.5377C59.4348 9.51248 60.6259 8.99994 62.1023 8.99994C63.3918 8.99994 64.4389 9.40247 65.2442 10.2072C65.7235 10.6832 66.083 11.3665 66.3227 12.2573L64.216 12.789C64.0914 12.2119 63.8316 11.7562 63.436 11.4221C63.0406 11.0882 62.5598 10.921 61.9944 10.921C61.2132 10.921 60.5792 11.2172 60.0928 11.8095C59.6062 12.4017 59.3629 13.361 59.3629 14.687C59.3629 16.0946 59.6027 17.0967 60.0819 17.6938C60.5612 18.2912 61.1846 18.5898 61.9514 18.5898C62.5168 18.5898 63.0034 18.4 63.4107 18.0204C63.8182 17.6408 64.1107 17.0434 64.288 16.2285Z" fill="#333467"/>
</g>
<path fill-rule="evenodd" clip-rule="evenodd" d="M78.7993 20.6335V9.48285H81.9288L83.8077 17.089L85.6657 9.48285H88.8023V20.6335H86.8595V11.856L84.8038 20.6335H82.7905L80.7419 11.856V20.6335H78.7993Z" fill="#333467"/>
<path fill-rule="evenodd" clip-rule="evenodd" d="M91.0252 20.6335V9.48285H94.551C95.8871 9.48285 96.7582 9.53864 97.1638 9.65023C97.7873 9.81749 98.3095 10.1814 98.73 10.7416C99.1506 11.302 99.361 12.026 99.361 12.9133C99.361 13.5977 99.2397 14.1732 98.9971 14.6399C98.7549 15.1064 98.4469 15.4726 98.0731 15.7388C97.6994 16.0051 97.3197 16.1814 96.9337 16.2676C96.4093 16.3741 95.6495 16.4272 94.655 16.4272H93.2224V20.6335H91.0252Z" fill="#333467"/>
<path fill-rule="evenodd" clip-rule="evenodd" d="M93.248 11.2435V14.1778H94.4552C95.3246 14.1778 95.9059 14.1239 96.1991 14.0157C96.4923 13.9075 96.7218 13.7381 96.8884 13.5078C97.055 13.2775 97.1381 13.0094 97.1381 12.7037C97.1381 12.3275 97.0213 12.017 96.7879 11.7725C96.5541 11.528 96.2586 11.3751 95.901 11.3141C95.6375 11.2671 95.1085 11.2435 94.3137 11.2435H93.248Z" fill="#333467"/>
<path fill-rule="evenodd" clip-rule="evenodd" d="M101.028 9.48285H103.139V15.421C103.139 16.3634 103.165 16.974 103.217 17.2531C103.307 17.702 103.523 18.0623 103.862 18.3337C104.202 18.6056 104.667 18.7413 105.257 18.7413C105.856 18.7413 106.307 18.613 106.612 18.3564C106.916 18.0996 107.099 17.7841 107.161 17.4102C107.222 17.0363 107.253 16.4157 107.253 15.5481V9.48285H109.364V15.2413C109.364 16.5576 109.307 17.4876 109.193 18.0308C109.079 18.5744 108.868 19.0331 108.562 19.407C108.255 19.781 107.845 20.0791 107.332 20.3008C106.818 20.5225 106.148 20.6335 105.321 20.6335C104.322 20.6335 103.565 20.5125 103.05 20.2709C102.534 20.029 102.126 19.7149 101.827 19.3285C101.527 18.9422 101.33 18.5371 101.235 18.1132C101.097 17.485 101.028 16.5576 101.028 15.3312V9.48285Z" fill="#333467"/>
<mask id="mask1_3_67" style="mask-type:alpha" maskUnits="userSpaceOnUse" x="111" y="9" width="9" height="12">
<path fill-rule="evenodd" clip-rule="evenodd" d="M111.069 9.00012H119.64V20.5183H111.069V9.00012Z" fill="white"/>
</mask>
<g mask="url(#mask1_3_67)">
<path fill-rule="evenodd" clip-rule="evenodd" d="M111.069 16.6992L113.14 16.4866C113.265 17.2207 113.518 17.7597 113.898 18.1039C114.28 18.4482 114.794 18.6201 115.441 18.6201C116.126 18.6201 116.642 18.4672 116.99 18.1609C117.338 17.8546 117.511 17.4966 117.511 17.0863C117.511 16.8234 117.438 16.5993 117.292 16.4144C117.146 16.2298 116.891 16.069 116.526 15.9324C116.277 15.8412 115.709 15.6793 114.822 15.4464C113.682 15.1479 112.881 14.7809 112.421 14.3455C111.774 13.733 111.45 12.9861 111.45 12.1055C111.45 11.5386 111.602 11.0084 111.907 10.5148C112.211 10.0214 112.65 9.64545 113.223 9.38723C113.795 9.12912 114.487 9.00012 115.297 9.00012C116.62 9.00012 117.616 9.30645 118.284 9.91875C118.953 10.5314 119.304 11.349 119.338 12.3712L117.209 12.4699C117.118 11.898 116.923 11.4867 116.624 11.2362C116.324 10.9855 115.875 10.8603 115.276 10.8603C114.657 10.8603 114.173 10.9943 113.823 11.2627C113.597 11.4348 113.485 11.6652 113.485 11.9537C113.485 12.2169 113.59 12.4423 113.801 12.6295C114.07 12.8674 114.722 13.1155 115.757 13.3736C116.792 13.6317 117.558 13.8988 118.054 14.1746C118.55 14.4506 118.939 14.8276 119.219 15.3059C119.499 15.7843 119.64 16.3754 119.64 17.0788C119.64 17.7166 119.472 18.314 119.136 18.8708C118.801 19.4277 118.326 19.8415 117.713 20.1123C117.099 20.3829 116.335 20.5183 115.419 20.5183C114.087 20.5183 113.063 20.1933 112.349 19.5428C111.635 18.8924 111.208 17.9443 111.069 16.6992Z" fill="#333467"/>
</g>
<g filter="url(#filter0_i_3_67)">
<path d="M57.3516 44.2266C57.3516 43.5 57.4805 42.9023 57.7383 42.4336C58.0195 41.9648 58.3945 41.5898 58.8633 41.3086C59.332 41.0039 59.8477 40.7812 60.4102 40.6406C60.9961 40.5 61.5938 40.4062 62.2031 40.3594C62.8359 40.2891 63.4453 40.2656 64.0312 40.2891C64.6172 40.2891 65.1562 40.2891 65.6484 40.2891C66.6094 40.2891 67.5703 40.3828 68.5312 40.5703C69.4922 40.7578 70.3359 41.0859 71.0625 41.5547C71.8125 42.0234 72.4219 42.6562 72.8906 43.4531C73.3594 44.2266 73.5938 45.1992 73.5938 46.3711C73.5938 47.4023 73.3828 48.4336 72.9609 49.4648C72.5625 50.4727 72.0352 51.4453 71.3789 52.3828C70.7461 53.2969 70.0195 54.1406 69.1992 54.9141C68.3789 55.6641 67.5586 56.3086 66.7383 56.8477C65.9414 57.3867 65.168 57.8086 64.418 58.1133C63.6914 58.418 63.082 58.5352 62.5898 58.4648C62.3086 59.3789 62.1328 60.3633 62.0625 61.418C62.0156 62.4492 62.0039 63.4688 62.0273 64.4766C62.0508 65.4609 62.0859 66.4102 62.1328 67.3242C62.1797 68.2148 62.1328 68.9883 61.9922 69.6445C61.875 70.2773 61.6406 70.7578 61.2891 71.0859C60.9375 71.3906 60.3984 71.4844 59.6719 71.3672C59.4609 69.7031 59.2969 68.0156 59.1797 66.3047C59.0859 64.5938 59.0039 62.8945 58.9336 61.207C58.8633 59.5195 58.793 57.8789 58.7227 56.2852C58.6758 54.668 58.5938 53.1328 58.4766 51.6797C58.3828 50.2266 58.2422 48.8672 58.0547 47.6016C57.8672 46.3359 57.6328 45.2109 57.3516 44.2266ZM66.0352 43.3125C65.6836 43.3125 65.25 43.3242 64.7344 43.3477C64.2188 43.3711 63.7148 43.4531 63.2227 43.5938C62.7539 43.7109 62.3555 43.9336 62.0273 44.2617C61.6992 44.5664 61.5352 45.0117 61.5352 45.5977V54.8086C62.4961 54.8086 63.5156 54.5508 64.5938 54.0352C65.6719 53.5195 66.6562 52.8633 67.5469 52.0664C68.4375 51.2695 69.1758 50.3672 69.7617 49.3594C70.3477 48.3516 70.6406 47.3555 70.6406 46.3711C70.6406 45.6445 70.5 45.082 70.2188 44.6836C69.9609 44.2852 69.6094 43.9805 69.1641 43.7695C68.7422 43.5586 68.2617 43.4297 67.7227 43.3828C67.1836 43.3359 66.6211 43.3125 66.0352 43.3125ZM75.8789 52.1016C75.8789 51.4219 75.832 50.7656 75.7383 50.1328C75.6445 49.4766 75.6211 48.9023 75.668 48.4102C75.7148 47.8945 75.8906 47.4844 76.1953 47.1797C76.5234 46.875 77.1094 46.7227 77.9531 46.7227C78.2109 47.2617 78.457 48.082 78.6914 49.1836C78.9492 50.2852 79.1953 51.5508 79.4297 52.9805C79.6641 54.4102 79.8867 55.9688 80.0977 57.6562C80.3086 59.3203 80.4961 60.9961 80.6602 62.6836C80.8477 64.3711 81 66.0352 81.1172 67.6758C81.2578 69.293 81.3633 70.7695 81.4336 72.1055C80.6602 72.6211 80.0391 72.6562 79.5703 72.2109C79.1016 71.7656 78.7148 71.0156 78.4102 69.9609C78.1055 68.8828 77.8711 67.582 77.707 66.0586C77.543 64.5117 77.3789 62.918 77.2148 61.2773C77.0742 59.6133 76.8984 57.9844 76.6875 56.3906C76.4766 54.7734 76.207 53.3438 75.8789 52.1016ZM98.3789 67.4648C97.4883 68.0742 96.7148 68.625 96.0586 69.1172C95.4258 69.5859 94.8047 69.9844 94.1953 70.3125C93.5859 70.6406 92.9297 70.8867 92.2266 71.0508C91.5469 71.2148 90.7031 71.2969 89.6953 71.2969C87.5156 71.2969 85.8984 70.7227 84.8438 69.5742C83.7891 68.4023 83.2617 66.668 83.2617 64.3711C83.2617 63.4805 83.3789 62.5547 83.6133 61.5938C83.8477 60.6328 84.1875 59.6836 84.6328 58.7461C85.1016 57.7852 85.6523 56.8828 86.2852 56.0391C86.918 55.1719 87.6328 54.4102 88.4297 53.7539C89.2266 53.0977 90.0703 52.582 90.9609 52.207C91.875 51.8086 92.8359 51.6094 93.8438 51.6094C95.5312 51.7734 96.8555 52.1953 97.8164 52.875C98.7773 53.5312 99.5039 54.3867 99.9961 55.4414C100.488 56.4727 100.828 57.6328 101.016 58.9219C101.203 60.1875 101.344 61.5 101.438 62.8594C101.555 64.2188 101.695 65.5781 101.859 66.9375C102.023 68.2969 102.363 69.5508 102.879 70.6992C102.574 71.4727 102.281 72.0117 102 72.3164C101.742 72.6445 101.449 72.7031 101.121 72.4922C100.793 72.2812 100.406 71.7656 99.9609 70.9453C99.5391 70.125 99.0117 68.9648 98.3789 67.4648ZM86.25 64.4414C86.25 65.7773 86.4961 66.7617 86.9883 67.3945C87.5039 68.0039 88.4062 68.3086 89.6953 68.3086C90.6562 68.3086 91.5703 68.1445 92.4375 67.8164C93.3281 67.4648 94.1016 66.9961 94.7578 66.4102C95.4141 65.8008 95.9414 65.0742 96.3398 64.2305C96.7383 63.3867 96.9375 62.4492 96.9375 61.418C96.9375 60.9961 96.9492 60.4102 96.9727 59.6602C96.9961 58.8867 96.9492 58.125 96.832 57.375C96.7148 56.625 96.4922 55.9805 96.1641 55.4414C95.8359 54.8789 95.3438 54.5977 94.6875 54.5977C93.4688 54.5977 92.3438 54.9141 91.3125 55.5469C90.2812 56.1562 89.3906 56.9414 88.6406 57.9023C87.8906 58.8633 87.3047 59.9297 86.8828 61.1016C86.4609 62.25 86.25 63.3633 86.25 64.4414ZM105.094 60.1523C105.094 59.543 105.246 59.1094 105.551 58.8516C105.855 58.5703 106.348 58.4297 107.027 58.4297H107.379C107.449 58.8047 107.531 59.2383 107.625 59.7305C107.719 60.2227 107.859 60.7266 108.047 61.2422C108.234 61.7578 108.457 62.2383 108.715 62.6836C108.973 63.1055 109.289 63.4453 109.664 63.7031C109.688 62.8828 109.887 62.0977 110.262 61.3477C110.66 60.5742 111.141 59.8945 111.703 59.3086C112.289 58.6992 112.922 58.1953 113.602 57.7969C114.305 57.375 114.996 57.0938 115.676 56.9531H116.449C117.574 56.9531 118.535 57.2109 119.332 57.7266C120.129 58.2188 120.785 58.875 121.301 59.6953C121.84 60.4922 122.25 61.4062 122.531 62.4375C122.812 63.4688 123.023 64.5234 123.164 65.6016C123.328 66.6562 123.422 67.6875 123.445 68.6953C123.492 69.6797 123.516 70.5234 123.516 71.2266H120.949C120.809 69.8203 120.633 68.4727 120.422 67.1836C120.352 66.668 120.258 66.1289 120.141 65.5664C120.023 64.9805 119.895 64.4414 119.754 63.9492C119.613 63.4336 119.461 62.9648 119.297 62.543C119.133 62.0977 118.945 61.7227 118.734 61.418C118.641 61.3242 118.512 61.1953 118.348 61.0312C118.207 60.8672 118.055 60.7031 117.891 60.5391C117.727 60.375 117.574 60.2344 117.434 60.1172C117.293 60 117.211 59.9414 117.188 59.9414C116.484 59.7539 115.875 59.8945 115.359 60.3633C114.844 60.8086 114.387 61.418 113.988 62.1914C113.59 62.9648 113.262 63.8438 113.004 64.8281C112.77 65.8125 112.57 66.7617 112.406 67.6758C112.242 68.5664 112.125 69.3516 112.055 70.0312C111.984 70.6875 111.938 71.0859 111.914 71.2266C111.328 71.6484 110.777 71.7773 110.262 71.6133C109.746 71.4258 109.254 71.0508 108.785 70.4883C108.34 69.9258 107.93 69.2227 107.555 68.3789C107.203 67.5352 106.875 66.6445 106.57 65.707C106.266 64.7461 105.984 63.7852 105.727 62.8242C105.492 61.8633 105.281 60.9727 105.094 60.1523ZM124.676 54.2812C124.676 54.2109 124.688 54.1523 124.711 54.1055C124.711 54.0586 124.723 54 124.746 53.9297C124.84 53.8125 124.98 53.6602 125.168 53.4727C125.355 53.2852 125.473 53.1914 125.52 53.1914H132.586C132.586 52.9336 132.551 52.5234 132.48 51.9609C132.41 51.3984 132.34 50.7773 132.27 50.0977C132.223 49.418 132.211 48.7148 132.234 47.9883C132.258 47.2383 132.352 46.5703 132.516 45.9844C132.703 45.375 132.984 44.8828 133.359 44.5078C133.758 44.1094 134.309 43.9102 135.012 43.9102C135.012 46.2773 135.176 48.1758 135.504 49.6055C135.832 51.0352 136.266 52.1367 136.805 52.9102C137.367 53.6836 138 54.1875 138.703 54.4219C139.406 54.6562 140.121 54.7617 140.848 54.7383C141.598 54.6914 142.324 54.5742 143.027 54.3867C143.73 54.1992 144.352 54.0703 144.891 54C145.453 53.9297 145.898 53.9883 146.227 54.1758C146.555 54.3398 146.719 54.75 146.719 55.4062C146.719 55.8984 146.602 56.25 146.367 56.4609C146.156 56.6719 145.734 56.8359 145.102 56.9531C144.914 56.9766 144.598 57.0234 144.152 57.0938C143.73 57.1406 143.25 57.1875 142.711 57.2344C142.172 57.2812 141.598 57.3398 140.988 57.4102C140.379 57.457 139.805 57.5039 139.266 57.5508C138.727 57.5977 138.234 57.6328 137.789 57.6562C137.344 57.6562 137.016 57.6562 136.805 57.6562C136.805 57.7734 136.793 57.9727 136.77 58.2539C136.746 58.5352 136.734 58.7227 136.734 58.8164C136.734 59.8477 136.898 60.8555 137.227 61.8398C137.555 62.8008 137.906 63.7617 138.281 64.7227C138.68 65.6836 139.043 66.6445 139.371 67.6055C139.699 68.5664 139.863 69.5625 139.863 70.5938C139.863 70.7812 139.84 70.9805 139.793 71.1914C139.77 71.3789 139.699 71.5547 139.582 71.7188C139.488 71.8594 139.336 71.9648 139.125 72.0352C138.938 72.1289 138.668 72.1172 138.316 72C137.426 71.7656 136.758 71.2617 136.312 70.4883C135.891 69.7148 135.574 68.8008 135.363 67.7461C135.152 66.668 135.012 65.5312 134.941 64.3359C134.871 63.1406 134.754 62.0273 134.59 60.9961C134.449 59.9414 134.215 59.0508 133.887 58.3242C133.559 57.5742 133.031 57.1172 132.305 56.9531L125.52 55.4062C125.426 55.4062 125.285 55.3125 125.098 55.125C124.91 54.9141 124.793 54.7617 124.746 54.668C124.723 54.6211 124.711 54.5625 124.711 54.4922C124.688 54.4453 124.676 54.375 124.676 54.2812ZM153.363 70.4883C153.48 69.9258 153.773 69.4688 154.242 69.1172C154.734 68.7422 155.285 68.4023 155.895 68.0977C156.527 67.793 157.184 67.5117 157.863 67.2539C158.543 66.9727 159.164 66.6797 159.727 66.375C160.312 66.0703 160.793 65.7188 161.168 65.3203C161.543 64.8984 161.73 64.3945 161.73 63.8086C161.73 63.0586 161.531 62.4375 161.133 61.9453C160.758 61.4531 160.242 61.0312 159.586 60.6797C158.953 60.3281 158.227 60.0352 157.406 59.8008C156.586 59.5664 155.742 59.332 154.875 59.0977C154.031 58.8398 153.199 58.5703 152.379 58.2891C151.559 57.9844 150.82 57.6094 150.164 57.1641C149.531 56.7188 149.016 56.1797 148.617 55.5469C148.242 54.9141 148.055 54.1289 148.055 53.1914C148.055 52.418 148.207 51.6914 148.512 51.0117C148.84 50.3086 149.262 49.6523 149.777 49.043C150.316 48.4102 150.926 47.8359 151.605 47.3203C152.309 46.8047 153.035 46.3711 153.785 46.0195C154.559 45.668 155.332 45.3984 156.105 45.2109C156.879 45 157.594 44.8945 158.25 44.8945H158.637C158.848 44.9648 159.129 45.082 159.48 45.2461C159.832 45.4102 160.172 45.5742 160.5 45.7383C160.828 45.8789 161.109 46.0195 161.344 46.1602C161.578 46.2773 161.695 46.3477 161.695 46.3711V47.1797C161.25 47.2266 160.676 47.3203 159.973 47.4609C159.27 47.5781 158.531 47.7422 157.758 47.9531C156.984 48.1641 156.199 48.4336 155.402 48.7617C154.605 49.0664 153.891 49.4297 153.258 49.8516C152.625 50.2734 152.109 50.7656 151.711 51.3281C151.312 51.8672 151.113 52.4883 151.113 53.1914C151.113 54.1992 151.465 54.9961 152.168 55.582C152.871 56.1445 153.75 56.6133 154.805 56.9883C155.859 57.3633 157.008 57.7031 158.25 58.0078C159.516 58.2891 160.676 58.6406 161.73 59.0625C162.785 59.4609 163.664 60 164.367 60.6797C165.07 61.3359 165.422 62.2266 165.422 63.3516C165.422 63.9609 165.234 64.6055 164.859 65.2852C164.508 65.9414 164.027 66.5977 163.418 67.2539C162.832 67.8867 162.164 68.4961 161.414 69.082C160.664 69.668 159.891 70.1836 159.094 70.6289C158.32 71.0508 157.559 71.4023 156.809 71.6836C156.059 71.9414 155.391 72.0703 154.805 72.0703C154.617 72.0703 154.418 72.0469 154.207 72C153.996 71.9531 153.809 71.8828 153.645 71.7891C153.504 71.6719 153.387 71.5078 153.293 71.2969C153.223 71.0859 153.246 70.8164 153.363 70.4883ZM166.09 56.9531C166.09 56.5547 166.172 56.1914 166.336 55.8633C166.523 55.5352 166.84 55.3711 167.285 55.3711C167.309 55.3711 167.344 55.3828 167.391 55.4062C167.438 55.4062 167.484 55.4062 167.531 55.4062C167.578 55.4062 167.625 55.4062 167.672 55.4062C167.742 55.4531 167.871 55.5703 168.059 55.7578C168.27 55.9453 168.398 56.0859 168.445 56.1797C168.516 56.3203 168.656 56.625 168.867 57.0938C169.102 57.5625 169.371 58.1133 169.676 58.7461C170.004 59.3555 170.332 60.0117 170.66 60.7148C171.012 61.3945 171.34 62.0508 171.645 62.6836C171.973 63.3164 172.242 63.8672 172.453 64.3359C172.688 64.7812 172.852 65.0742 172.945 65.2148C172.969 65.2852 173.074 65.4258 173.262 65.6367C173.473 65.8242 173.625 65.9414 173.719 65.9883C173.906 65.6602 174.094 65.168 174.281 64.5117C174.469 63.8555 174.656 63.1406 174.844 62.3672C175.055 61.5703 175.266 60.7617 175.477 59.9414C175.688 59.0977 175.922 58.3477 176.18 57.6914C176.461 57.0117 176.766 56.4609 177.094 56.0391C177.422 55.5938 177.797 55.3711 178.219 55.3711C178.828 55.3711 179.402 55.6055 179.941 56.0742C180.504 56.543 181.031 57.1523 181.523 57.9023C182.039 58.6523 182.52 59.4961 182.965 60.4336C183.434 61.3477 183.867 62.2617 184.266 63.1758C184.688 64.0664 185.074 64.8984 185.426 65.6719C185.801 66.4219 186.164 67.0195 186.516 67.4648C186.797 67.3711 187.031 67.1367 187.219 66.7617C187.406 66.3867 187.547 66 187.641 65.6016C187.758 65.1797 187.84 64.793 187.887 64.4414C187.934 64.0664 187.969 63.8203 187.992 63.7031C188.016 63.4453 188.051 63.0469 188.098 62.5078C188.145 61.9453 188.191 61.3125 188.238 60.6094C188.309 59.9062 188.367 59.1797 188.414 58.4297C188.461 57.6797 188.508 56.9531 188.555 56.25C188.625 55.5469 188.672 54.9258 188.695 54.3867C188.742 53.8242 188.766 53.4258 188.766 53.1914C188.812 53.1914 188.93 53.1797 189.117 53.1562C189.305 53.1094 189.434 53.0859 189.504 53.0859C189.832 53.0859 190.125 53.1211 190.383 53.1914C190.641 53.2617 190.84 53.5078 190.98 53.9297C190.98 54.0938 190.98 54.3867 190.98 54.8086C191.004 55.2305 191.016 55.6875 191.016 56.1797C191.039 56.6484 191.051 57.1055 191.051 57.5508C191.074 57.9727 191.086 58.2656 191.086 58.4297C191.086 58.8047 191.086 59.3906 191.086 60.1875C191.109 60.9609 191.098 61.8281 191.051 62.7891C191.027 63.75 190.957 64.7344 190.84 65.7422C190.723 66.7266 190.535 67.6406 190.277 68.4844C190.043 69.3047 189.715 69.9844 189.293 70.5234C188.871 71.0391 188.344 71.2969 187.711 71.2969C186.984 71.2969 186.305 71.1211 185.672 70.7695C185.039 70.418 184.441 69.9492 183.879 69.3633C183.34 68.7773 182.824 68.1328 182.332 67.4297C181.84 66.7031 181.383 65.9766 180.961 65.25C180.562 64.5 180.188 63.7969 179.836 63.1406C179.508 62.4609 179.215 61.8867 178.957 61.418C178.77 61.8398 178.594 62.3672 178.43 63C178.289 63.6328 178.125 64.3242 177.938 65.0742C177.75 65.8008 177.539 66.5391 177.305 67.2891C177.07 68.0156 176.801 68.6836 176.496 69.293C176.215 69.8789 175.875 70.3594 175.477 70.7344C175.102 71.1094 174.668 71.2969 174.176 71.2969C173.941 71.2969 173.73 71.3086 173.543 71.332C173.355 71.332 173.18 71.3203 173.016 71.2969C172.852 71.25 172.699 71.168 172.559 71.0508C172.418 70.9336 172.289 70.7461 172.172 70.4883L166.16 57.6562C166.16 57.6328 166.148 57.5391 166.125 57.375C166.102 57.1875 166.09 57.0469 166.09 56.9531ZM208.383 67.4648C207.492 68.0742 206.719 68.625 206.062 69.1172C205.43 69.5859 204.809 69.9844 204.199 70.3125C203.59 70.6406 202.934 70.8867 202.23 71.0508C201.551 71.2148 200.707 71.2969 199.699 71.2969C197.52 71.2969 195.902 70.7227 194.848 69.5742C193.793 68.4023 193.266 66.668 193.266 64.3711C193.266 63.4805 193.383 62.5547 193.617 61.5938C193.852 60.6328 194.191 59.6836 194.637 58.7461C195.105 57.7852 195.656 56.8828 196.289 56.0391C196.922 55.1719 197.637 54.4102 198.434 53.7539C199.23 53.0977 200.074 52.582 200.965 52.207C201.879 51.8086 202.84 51.6094 203.848 51.6094C205.535 51.7734 206.859 52.1953 207.82 52.875C208.781 53.5312 209.508 54.3867 210 55.4414C210.492 56.4727 210.832 57.6328 211.02 58.9219C211.207 60.1875 211.348 61.5 211.441 62.8594C211.559 64.2188 211.699 65.5781 211.863 66.9375C212.027 68.2969 212.367 69.5508 212.883 70.6992C212.578 71.4727 212.285 72.0117 212.004 72.3164C211.746 72.6445 211.453 72.7031 211.125 72.4922C210.797 72.2812 210.41 71.7656 209.965 70.9453C209.543 70.125 209.016 68.9648 208.383 67.4648ZM196.254 64.4414C196.254 65.7773 196.5 66.7617 196.992 67.3945C197.508 68.0039 198.41 68.3086 199.699 68.3086C200.66 68.3086 201.574 68.1445 202.441 67.8164C203.332 67.4648 204.105 66.9961 204.762 66.4102C205.418 65.8008 205.945 65.0742 206.344 64.2305C206.742 63.3867 206.941 62.4492 206.941 61.418C206.941 60.9961 206.953 60.4102 206.977 59.6602C207 58.8867 206.953 58.125 206.836 57.375C206.719 56.625 206.496 55.9805 206.168 55.4414C205.84 54.8789 205.348 54.5977 204.691 54.5977C203.473 54.5977 202.348 54.9141 201.316 55.5469C200.285 56.1562 199.395 56.9414 198.645 57.9023C197.895 58.8633 197.309 59.9297 196.887 61.1016C196.465 62.25 196.254 63.3633 196.254 64.4414ZM215.098 59.0273C215.098 56.7539 215.625 55.0664 216.68 53.9648C217.734 52.8633 219.352 52.3125 221.531 52.3125C222.422 52.3125 223.336 52.3945 224.273 52.5586C225.234 52.7227 226.113 53.0156 226.91 53.4375C227.707 53.8359 228.352 54.3984 228.844 55.125C229.359 55.8516 229.617 56.7891 229.617 57.9375C229.617 59.2031 229.336 60.3984 228.773 61.5234C228.234 62.625 227.543 63.668 226.699 64.6523C225.879 65.6133 224.965 66.5156 223.957 67.3594C222.973 68.1797 222.047 68.9648 221.18 69.7148C221.133 69.8086 221.086 70.0078 221.039 70.3125C221.016 70.5938 221.004 70.7812 221.004 70.875C221.004 71.6484 221.227 72.4219 221.672 73.1953C222.141 73.9922 222.645 74.7891 223.184 75.5859C223.723 76.4062 224.215 77.25 224.66 78.1172C225.105 78.9844 225.328 79.8867 225.328 80.8242C225.328 81.3867 225.211 81.7148 224.977 81.8086C224.742 81.9258 224.25 81.9844 223.5 81.9844C223.031 81.7969 222.562 81.3516 222.094 80.6484C221.648 79.9688 221.191 79.125 220.723 78.1172C220.277 77.1094 219.832 75.9727 219.387 74.707C218.965 73.4648 218.555 72.1992 218.156 70.9102C217.781 69.5977 217.418 68.3086 217.066 67.043C216.738 65.7539 216.445 64.5703 216.188 63.4922C215.93 62.4141 215.695 61.4883 215.484 60.7148C215.297 59.918 215.168 59.3555 215.098 59.0273ZM218.086 59.3438C218.086 59.6953 218.109 60.2109 218.156 60.8906C218.203 61.5469 218.297 62.2031 218.438 62.8594C218.602 63.5156 218.836 64.0898 219.141 64.582C219.445 65.0508 219.867 65.2852 220.406 65.2852C221.133 65.2852 221.859 65.0391 222.586 64.5469C223.336 64.0547 223.992 63.4336 224.555 62.6836C225.141 61.9336 225.609 61.1367 225.961 60.293C226.336 59.4258 226.523 58.6406 226.523 57.9375C226.523 57.3516 226.383 56.8945 226.102 56.5664C225.82 56.2148 225.457 55.9453 225.012 55.7578C224.59 55.5469 224.133 55.418 223.641 55.3711C223.148 55.3008 222.68 55.2656 222.234 55.2656C220.898 55.2656 219.867 55.6289 219.141 56.3555C218.438 57.0586 218.086 58.0547 218.086 59.3438Z" fill="#68BE3F"/>
</g>
<path d="M283.5 77C302.002 77 317 61.7777 317 43C317 24.2223 302.002 9 283.5 9C264.998 9 250 24.2223 250 43C250 61.7777 264.998 77 283.5 77Z" fill="#273B7A"/>
<path d="M285.312 76.9501C300.804 76.1119 313.5 64.5919 316.383 49.5158L289.596 22.3287L287.069 25.4342L282.735 21.0353L282.362 21.6208L282.034 21.2874L279.157 24.5137L291.483 37.0232L290.213 38.3123L278.537 26.4626L272.13 34.5442L278.537 41.0469H292.3L293.278 42.0396L289.157 43.8999L268.823 46.168L284.096 61.6691L274.195 65.6668L285.312 76.9501Z" fill="#121149"/>
<path d="M274.194 65.6667H292.806L296.528 43H270.472L274.194 65.6667Z" fill="#D35933"/>
<path d="M296.528 43H283.5V65.6667H292.806L296.528 43Z" fill="#B54324"/>
<path d="M297.073 46.7777H269.927C269.2 46.7777 268.611 46.1797 268.611 45.4422V40.5579C268.611 39.8202 269.2 39.2223 269.927 39.2223H297.073C297.8 39.2223 298.389 39.8203 298.389 40.5579V45.4422C298.389 46.1798 297.8 46.7777 297.073 46.7777Z" fill="#FF7F4F"/>
<path d="M297.073 39.2223H283.5V46.7779H297.073C297.8 46.7779 298.389 46.1798 298.389 45.4423V40.558C298.389 39.8202 297.8 39.2223 297.073 39.2223Z" fill="#D35933"/>
<path d="M279.778 39.2442C279.778 39.2442 279.853 31.1924 268.611 31.6886C268.611 31.6886 270.904 42.4114 279.778 39.2442Z" fill="#6CAF5F"/>
<path d="M268.611 31.6886C268.611 31.6886 270.904 42.4114 279.778 39.2442L268.611 31.6886Z" fill="#477F3C"/>
<path d="M287.222 38.835C287.222 38.835 294.578 41.8504 298.235 31.0498C298.235 31.0498 287.563 29.2949 287.222 38.835Z" fill="#6CAF5F"/>
<path d="M287.222 38.835C287.222 38.835 294.578 41.8504 298.235 31.0498L287.222 38.835Z" fill="#477F3C"/>
<path d="M284.27 29.0025C284.27 29.0025 289.246 29.5165 289.596 22.3287C289.596 22.3287 282.83 23.1683 284.27 29.0025Z" fill="#6CAF5F"/>
<path d="M284.27 29.0025C284.27 29.0025 289.246 29.5165 289.596 22.3287L284.27 29.0025Z" fill="#477F3C"/>
<path d="M279.537 31.1551C279.537 31.1551 281.41 26.4501 274.708 24.111C274.709 24.1112 273.616 30.9371 279.537 31.1551Z" fill="#8BC180"/>
<path d="M274.709 24.1111C274.709 24.1111 273.617 30.937 279.537 31.1553L274.709 24.1111Z" fill="#6CAF5F"/>
<path d="M281.019 25.3703C282.389 25.3703 283.5 24.2427 283.5 22.8518C283.5 21.4609 282.389 20.3333 281.019 20.3333C279.648 20.3333 278.537 21.4609 278.537 22.8518C278.537 24.2427 279.648 25.3703 281.019 25.3703Z" fill="#FFC61B"/>
<path d="M289.704 32.9259C291.074 32.9259 292.185 31.7983 292.185 30.4074C292.185 29.0164 291.074 27.8889 289.704 27.8889C288.333 27.8889 287.222 29.0164 287.222 30.4074C287.222 31.7983 288.333 32.9259 289.704 32.9259Z" fill="#FFC61B"/>
<path d="M274.815 32.9259C276.185 32.9259 277.296 31.7983 277.296 30.4074C277.296 29.0164 276.185 27.8889 274.815 27.8889C273.444 27.8889 272.333 29.0164 272.333 30.4074C272.333 31.7983 273.444 32.9259 274.815 32.9259Z" fill="#FFC61B"/>
<path d="M282.259 36.7038C283.63 36.7038 284.741 35.5762 284.741 34.1852C284.741 32.7943 283.63 31.6667 282.259 31.6667C280.889 31.6667 279.778 32.7943 279.778 34.1852C279.778 35.5762 280.889 36.7038 282.259 36.7038Z" fill="#FFC61B"/>
<path d="M281.019 20.3333C282.389 20.3333 283.5 21.4609 283.5 22.8518C283.5 24.2428 282.389 25.3703 281.019 25.3703V20.3333Z" fill="#EAA22F"/>
<path d="M289.704 27.8889C291.074 27.8889 292.185 29.0164 292.185 30.4074C292.185 31.7983 291.074 32.9259 289.704 32.9259V27.8889Z" fill="#EAA22F"/>
<path d="M274.815 27.8889C276.185 27.8889 277.296 29.0164 277.296 30.4074C277.296 31.7983 276.185 32.9259 274.815 32.9259V27.8889Z" fill="#EAA22F"/>
<path d="M282.259 31.6667C283.63 31.6667 284.741 32.7943 284.741 34.1852C284.741 35.5762 283.63 36.7038 282.259 36.7038V31.6667V31.6667Z" fill="#EAA22F"/>
<defs>
<filter id="filter0_i_3_67" x="57.3516" y="40.2539" width="172.266" height="45.7305" filterUnits="userSpaceOnUse" color-interpolation-filters="sRGB">
<feFlood flood-opacity="0" result="BackgroundImageFix"/>
<feBlend mode="normal" in="SourceGraphic" in2="BackgroundImageFix" result="shape"/>
<feColorMatrix in="SourceAlpha" type="matrix" values="0 0 0 0 0 0 0 0 0 0 0 0 0 0 0 0 0 0 127 0" result="hardAlpha"/>
<feOffset dy="4"/>
<feGaussianBlur stdDeviation="2"/>
<feComposite in2="hardAlpha" operator="arithmetic" k2="-1" k3="1"/>
<feColorMatrix type="matrix" values="0 0 0 0 0 0 0 0 0 0 0 0 0 0 0 0 0 0 0.25 0"/>
<feBlend mode="normal" in2="shape" result="effect1_innerShadow_3_67"/>
</filter>
</defs>
</svg>
