<svg width="368" height="80" viewBox="0 0 368 80" fill="none" xmlns="http://www.w3.org/2000/svg">
<g filter="url(#filter0_i_3_66)">
<path d="M0.351562 22.2266C0.351562 21.5 0.480469 20.9023 0.738281 20.4336C1.01953 19.9648 1.39453 19.5898 1.86328 19.3086C2.33203 19.0039 2.84766 18.7812 3.41016 18.6406C3.99609 18.5 4.59375 18.4062 5.20312 18.3594C5.83594 18.2891 6.44531 18.2656 7.03125 18.2891C7.61719 18.2891 8.15625 18.2891 8.64844 18.2891C9.60938 18.2891 10.5703 18.3828 11.5312 18.5703C12.4922 18.7578 13.3359 19.0859 14.0625 19.5547C14.8125 20.0234 15.4219 20.6562 15.8906 21.4531C16.3594 22.2266 16.5938 23.1992 16.5938 24.3711C16.5938 25.4023 16.3828 26.4336 15.9609 27.4648C15.5625 28.4727 15.0352 29.4453 14.3789 30.3828C13.7461 31.2969 13.0195 32.1406 12.1992 32.9141C11.3789 33.6641 10.5586 34.3086 9.73828 34.8477C8.94141 35.3867 8.16797 35.8086 7.41797 36.1133C6.69141 36.418 6.08203 36.5352 5.58984 36.4648C5.30859 37.3789 5.13281 38.3633 5.0625 39.418C5.01562 40.4492 5.00391 41.4688 5.02734 42.4766C5.05078 43.4609 5.08594 44.4102 5.13281 45.3242C5.17969 46.2148 5.13281 46.9883 4.99219 47.6445C4.875 48.2773 4.64062 48.7578 4.28906 49.0859C3.9375 49.3906 3.39844 49.4844 2.67188 49.3672C2.46094 47.7031 2.29688 46.0156 2.17969 44.3047C2.08594 42.5938 2.00391 40.8945 1.93359 39.207C1.86328 37.5195 1.79297 35.8789 1.72266 34.2852C1.67578 32.668 1.59375 31.1328 1.47656 29.6797C1.38281 28.2266 1.24219 26.8672 1.05469 25.6016C0.867188 24.3359 0.632812 23.2109 0.351562 22.2266ZM9.03516 21.3125C8.68359 21.3125 8.25 21.3242 7.73438 21.3477C7.21875 21.3711 6.71484 21.4531 6.22266 21.5938C5.75391 21.7109 5.35547 21.9336 5.02734 22.2617C4.69922 22.5664 4.53516 23.0117 4.53516 23.5977V32.8086C5.49609 32.8086 6.51562 32.5508 7.59375 32.0352C8.67188 31.5195 9.65625 30.8633 10.5469 30.0664C11.4375 29.2695 12.1758 28.3672 12.7617 27.3594C13.3477 26.3516 13.6406 25.3555 13.6406 24.3711C13.6406 23.6445 13.5 23.082 13.2188 22.6836C12.9609 22.2852 12.6094 21.9805 12.1641 21.7695C11.7422 21.5586 11.2617 21.4297 10.7227 21.3828C10.1836 21.3359 9.62109 21.3125 9.03516 21.3125ZM18.8789 30.1016C18.8789 29.4219 18.832 28.7656 18.7383 28.1328C18.6445 27.4766 18.6211 26.9023 18.668 26.4102C18.7148 25.8945 18.8906 25.4844 19.1953 25.1797C19.5234 24.875 20.1094 24.7227 20.9531 24.7227C21.2109 25.2617 21.457 26.082 21.6914 27.1836C21.9492 28.2852 22.1953 29.5508 22.4297 30.9805C22.6641 32.4102 22.8867 33.9688 23.0977 35.6562C23.3086 37.3203 23.4961 38.9961 23.6602 40.6836C23.8477 42.3711 24 44.0352 24.1172 45.6758C24.2578 47.293 24.3633 48.7695 24.4336 50.1055C23.6602 50.6211 23.0391 50.6562 22.5703 50.2109C22.1016 49.7656 21.7148 49.0156 21.4102 47.9609C21.1055 46.8828 20.8711 45.582 20.707 44.0586C20.543 42.5117 20.3789 40.918 20.2148 39.2773C20.0742 37.6133 19.8984 35.9844 19.6875 34.3906C19.4766 32.7734 19.207 31.3438 18.8789 30.1016ZM41.3789 45.4648C40.4883 46.0742 39.7148 46.625 39.0586 47.1172C38.4258 47.5859 37.8047 47.9844 37.1953 48.3125C36.5859 48.6406 35.9297 48.8867 35.2266 49.0508C34.5469 49.2148 33.7031 49.2969 32.6953 49.2969C30.5156 49.2969 28.8984 48.7227 27.8438 47.5742C26.7891 46.4023 26.2617 44.668 26.2617 42.3711C26.2617 41.4805 26.3789 40.5547 26.6133 39.5938C26.8477 38.6328 27.1875 37.6836 27.6328 36.7461C28.1016 35.7852 28.6523 34.8828 29.2852 34.0391C29.918 33.1719 30.6328 32.4102 31.4297 31.7539C32.2266 31.0977 33.0703 30.582 33.9609 30.207C34.875 29.8086 35.8359 29.6094 36.8438 29.6094C38.5312 29.7734 39.8555 30.1953 40.8164 30.875C41.7773 31.5312 42.5039 32.3867 42.9961 33.4414C43.4883 34.4727 43.8281 35.6328 44.0156 36.9219C44.2031 38.1875 44.3438 39.5 44.4375 40.8594C44.5547 42.2188 44.6953 43.5781 44.8594 44.9375C45.0234 46.2969 45.3633 47.5508 45.8789 48.6992C45.5742 49.4727 45.2812 50.0117 45 50.3164C44.7422 50.6445 44.4492 50.7031 44.1211 50.4922C43.793 50.2812 43.4062 49.7656 42.9609 48.9453C42.5391 48.125 42.0117 46.9648 41.3789 45.4648ZM29.25 42.4414C29.25 43.7773 29.4961 44.7617 29.9883 45.3945C30.5039 46.0039 31.4062 46.3086 32.6953 46.3086C33.6562 46.3086 34.5703 46.1445 35.4375 45.8164C36.3281 45.4648 37.1016 44.9961 37.7578 44.4102C38.4141 43.8008 38.9414 43.0742 39.3398 42.2305C39.7383 41.3867 39.9375 40.4492 39.9375 39.418C39.9375 38.9961 39.9492 38.4102 39.9727 37.6602C39.9961 36.8867 39.9492 36.125 39.832 35.375C39.7148 34.625 39.4922 33.9805 39.1641 33.4414C38.8359 32.8789 38.3438 32.5977 37.6875 32.5977C36.4688 32.5977 35.3438 32.9141 34.3125 33.5469C33.2812 34.1562 32.3906 34.9414 31.6406 35.9023C30.8906 36.8633 30.3047 37.9297 29.8828 39.1016C29.4609 40.25 29.25 41.3633 29.25 42.4414ZM48.0938 38.1523C48.0938 37.543 48.2461 37.1094 48.5508 36.8516C48.8555 36.5703 49.3477 36.4297 50.0273 36.4297H50.3789C50.4492 36.8047 50.5312 37.2383 50.625 37.7305C50.7188 38.2227 50.8594 38.7266 51.0469 39.2422C51.2344 39.7578 51.457 40.2383 51.7148 40.6836C51.9727 41.1055 52.2891 41.4453 52.6641 41.7031C52.6875 40.8828 52.8867 40.0977 53.2617 39.3477C53.6602 38.5742 54.1406 37.8945 54.7031 37.3086C55.2891 36.6992 55.9219 36.1953 56.6016 35.7969C57.3047 35.375 57.9961 35.0938 58.6758 34.9531H59.4492C60.5742 34.9531 61.5352 35.2109 62.332 35.7266C63.1289 36.2188 63.7852 36.875 64.3008 37.6953C64.8398 38.4922 65.25 39.4062 65.5312 40.4375C65.8125 41.4688 66.0234 42.5234 66.1641 43.6016C66.3281 44.6562 66.4219 45.6875 66.4453 46.6953C66.4922 47.6797 66.5156 48.5234 66.5156 49.2266H63.9492C63.8086 47.8203 63.6328 46.4727 63.4219 45.1836C63.3516 44.668 63.2578 44.1289 63.1406 43.5664C63.0234 42.9805 62.8945 42.4414 62.7539 41.9492C62.6133 41.4336 62.4609 40.9648 62.2969 40.543C62.1328 40.0977 61.9453 39.7227 61.7344 39.418C61.6406 39.3242 61.5117 39.1953 61.3477 39.0312C61.207 38.8672 61.0547 38.7031 60.8906 38.5391C60.7266 38.375 60.5742 38.2344 60.4336 38.1172C60.293 38 60.2109 37.9414 60.1875 37.9414C59.4844 37.7539 58.875 37.8945 58.3594 38.3633C57.8438 38.8086 57.3867 39.418 56.9883 40.1914C56.5898 40.9648 56.2617 41.8438 56.0039 42.8281C55.7695 43.8125 55.5703 44.7617 55.4062 45.6758C55.2422 46.5664 55.125 47.3516 55.0547 48.0312C54.9844 48.6875 54.9375 49.0859 54.9141 49.2266C54.3281 49.6484 53.7773 49.7773 53.2617 49.6133C52.7461 49.4258 52.2539 49.0508 51.7852 48.4883C51.3398 47.9258 50.9297 47.2227 50.5547 46.3789C50.2031 45.5352 49.875 44.6445 49.5703 43.707C49.2656 42.7461 48.9844 41.7852 48.7266 40.8242C48.4922 39.8633 48.2812 38.9727 48.0938 38.1523ZM67.6758 32.2812C67.6758 32.2109 67.6875 32.1523 67.7109 32.1055C67.7109 32.0586 67.7227 32 67.7461 31.9297C67.8398 31.8125 67.9805 31.6602 68.168 31.4727C68.3555 31.2852 68.4727 31.1914 68.5195 31.1914H75.5859C75.5859 30.9336 75.5508 30.5234 75.4805 29.9609C75.4102 29.3984 75.3398 28.7773 75.2695 28.0977C75.2227 27.418 75.2109 26.7148 75.2344 25.9883C75.2578 25.2383 75.3516 24.5703 75.5156 23.9844C75.7031 23.375 75.9844 22.8828 76.3594 22.5078C76.7578 22.1094 77.3086 21.9102 78.0117 21.9102C78.0117 24.2773 78.1758 26.1758 78.5039 27.6055C78.832 29.0352 79.2656 30.1367 79.8047 30.9102C80.3672 31.6836 81 32.1875 81.7031 32.4219C82.4062 32.6562 83.1211 32.7617 83.8477 32.7383C84.5977 32.6914 85.3242 32.5742 86.0273 32.3867C86.7305 32.1992 87.3516 32.0703 87.8906 32C88.4531 31.9297 88.8984 31.9883 89.2266 32.1758C89.5547 32.3398 89.7188 32.75 89.7188 33.4062C89.7188 33.8984 89.6016 34.25 89.3672 34.4609C89.1562 34.6719 88.7344 34.8359 88.1016 34.9531C87.9141 34.9766 87.5977 35.0234 87.1523 35.0938C86.7305 35.1406 86.25 35.1875 85.7109 35.2344C85.1719 35.2812 84.5977 35.3398 83.9883 35.4102C83.3789 35.457 82.8047 35.5039 82.2656 35.5508C81.7266 35.5977 81.2344 35.6328 80.7891 35.6562C80.3438 35.6562 80.0156 35.6562 79.8047 35.6562C79.8047 35.7734 79.793 35.9727 79.7695 36.2539C79.7461 36.5352 79.7344 36.7227 79.7344 36.8164C79.7344 37.8477 79.8984 38.8555 80.2266 39.8398C80.5547 40.8008 80.9062 41.7617 81.2812 42.7227C81.6797 43.6836 82.043 44.6445 82.3711 45.6055C82.6992 46.5664 82.8633 47.5625 82.8633 48.5938C82.8633 48.7812 82.8398 48.9805 82.793 49.1914C82.7695 49.3789 82.6992 49.5547 82.582 49.7188C82.4883 49.8594 82.3359 49.9648 82.125 50.0352C81.9375 50.1289 81.668 50.1172 81.3164 50C80.4258 49.7656 79.7578 49.2617 79.3125 48.4883C78.8906 47.7148 78.5742 46.8008 78.3633 45.7461C78.1523 44.668 78.0117 43.5312 77.9414 42.3359C77.8711 41.1406 77.7539 40.0273 77.5898 38.9961C77.4492 37.9414 77.2148 37.0508 76.8867 36.3242C76.5586 35.5742 76.0312 35.1172 75.3047 34.9531L68.5195 33.4062C68.4258 33.4062 68.2852 33.3125 68.0977 33.125C67.9102 32.9141 67.793 32.7617 67.7461 32.668C67.7227 32.6211 67.7109 32.5625 67.7109 32.4922C67.6875 32.4453 67.6758 32.375 67.6758 32.2812ZM96.3633 48.4883C96.4805 47.9258 96.7734 47.4688 97.2422 47.1172C97.7344 46.7422 98.2852 46.4023 98.8945 46.0977C99.5273 45.793 100.184 45.5117 100.863 45.2539C101.543 44.9727 102.164 44.6797 102.727 44.375C103.312 44.0703 103.793 43.7188 104.168 43.3203C104.543 42.8984 104.73 42.3945 104.73 41.8086C104.73 41.0586 104.531 40.4375 104.133 39.9453C103.758 39.4531 103.242 39.0312 102.586 38.6797C101.953 38.3281 101.227 38.0352 100.406 37.8008C99.5859 37.5664 98.7422 37.332 97.875 37.0977C97.0312 36.8398 96.1992 36.5703 95.3789 36.2891C94.5586 35.9844 93.8203 35.6094 93.1641 35.1641C92.5312 34.7188 92.0156 34.1797 91.6172 33.5469C91.2422 32.9141 91.0547 32.1289 91.0547 31.1914C91.0547 30.418 91.207 29.6914 91.5117 29.0117C91.8398 28.3086 92.2617 27.6523 92.7773 27.043C93.3164 26.4102 93.9258 25.8359 94.6055 25.3203C95.3086 24.8047 96.0352 24.3711 96.7852 24.0195C97.5586 23.668 98.332 23.3984 99.1055 23.2109C99.8789 23 100.594 22.8945 101.25 22.8945H101.637C101.848 22.9648 102.129 23.082 102.48 23.2461C102.832 23.4102 103.172 23.5742 103.5 23.7383C103.828 23.8789 104.109 24.0195 104.344 24.1602C104.578 24.2773 104.695 24.3477 104.695 24.3711V25.1797C104.25 25.2266 103.676 25.3203 102.973 25.4609C102.27 25.5781 101.531 25.7422 100.758 25.9531C99.9844 26.1641 99.1992 26.4336 98.4023 26.7617C97.6055 27.0664 96.8906 27.4297 96.2578 27.8516C95.625 28.2734 95.1094 28.7656 94.7109 29.3281C94.3125 29.8672 94.1133 30.4883 94.1133 31.1914C94.1133 32.1992 94.4648 32.9961 95.168 33.582C95.8711 34.1445 96.75 34.6133 97.8047 34.9883C98.8594 35.3633 100.008 35.7031 101.25 36.0078C102.516 36.2891 103.676 36.6406 104.73 37.0625C105.785 37.4609 106.664 38 107.367 38.6797C108.07 39.3359 108.422 40.2266 108.422 41.3516C108.422 41.9609 108.234 42.6055 107.859 43.2852C107.508 43.9414 107.027 44.5977 106.418 45.2539C105.832 45.8867 105.164 46.4961 104.414 47.082C103.664 47.668 102.891 48.1836 102.094 48.6289C101.32 49.0508 100.559 49.4023 99.8086 49.6836C99.0586 49.9414 98.3906 50.0703 97.8047 50.0703C97.6172 50.0703 97.418 50.0469 97.207 50C96.9961 49.9531 96.8086 49.8828 96.6445 49.7891C96.5039 49.6719 96.3867 49.5078 96.293 49.2969C96.2227 49.0859 96.2461 48.8164 96.3633 48.4883ZM109.09 34.9531C109.09 34.5547 109.172 34.1914 109.336 33.8633C109.523 33.5352 109.84 33.3711 110.285 33.3711C110.309 33.3711 110.344 33.3828 110.391 33.4062C110.438 33.4062 110.484 33.4062 110.531 33.4062C110.578 33.4062 110.625 33.4062 110.672 33.4062C110.742 33.4531 110.871 33.5703 111.059 33.7578C111.27 33.9453 111.398 34.0859 111.445 34.1797C111.516 34.3203 111.656 34.625 111.867 35.0938C112.102 35.5625 112.371 36.1133 112.676 36.7461C113.004 37.3555 113.332 38.0117 113.66 38.7148C114.012 39.3945 114.34 40.0508 114.645 40.6836C114.973 41.3164 115.242 41.8672 115.453 42.3359C115.688 42.7812 115.852 43.0742 115.945 43.2148C115.969 43.2852 116.074 43.4258 116.262 43.6367C116.473 43.8242 116.625 43.9414 116.719 43.9883C116.906 43.6602 117.094 43.168 117.281 42.5117C117.469 41.8555 117.656 41.1406 117.844 40.3672C118.055 39.5703 118.266 38.7617 118.477 37.9414C118.688 37.0977 118.922 36.3477 119.18 35.6914C119.461 35.0117 119.766 34.4609 120.094 34.0391C120.422 33.5938 120.797 33.3711 121.219 33.3711C121.828 33.3711 122.402 33.6055 122.941 34.0742C123.504 34.543 124.031 35.1523 124.523 35.9023C125.039 36.6523 125.52 37.4961 125.965 38.4336C126.434 39.3477 126.867 40.2617 127.266 41.1758C127.688 42.0664 128.074 42.8984 128.426 43.6719C128.801 44.4219 129.164 45.0195 129.516 45.4648C129.797 45.3711 130.031 45.1367 130.219 44.7617C130.406 44.3867 130.547 44 130.641 43.6016C130.758 43.1797 130.84 42.793 130.887 42.4414C130.934 42.0664 130.969 41.8203 130.992 41.7031C131.016 41.4453 131.051 41.0469 131.098 40.5078C131.145 39.9453 131.191 39.3125 131.238 38.6094C131.309 37.9062 131.367 37.1797 131.414 36.4297C131.461 35.6797 131.508 34.9531 131.555 34.25C131.625 33.5469 131.672 32.9258 131.695 32.3867C131.742 31.8242 131.766 31.4258 131.766 31.1914C131.812 31.1914 131.93 31.1797 132.117 31.1562C132.305 31.1094 132.434 31.0859 132.504 31.0859C132.832 31.0859 133.125 31.1211 133.383 31.1914C133.641 31.2617 133.84 31.5078 133.98 31.9297C133.98 32.0938 133.98 32.3867 133.98 32.8086C134.004 33.2305 134.016 33.6875 134.016 34.1797C134.039 34.6484 134.051 35.1055 134.051 35.5508C134.074 35.9727 134.086 36.2656 134.086 36.4297C134.086 36.8047 134.086 37.3906 134.086 38.1875C134.109 38.9609 134.098 39.8281 134.051 40.7891C134.027 41.75 133.957 42.7344 133.84 43.7422C133.723 44.7266 133.535 45.6406 133.277 46.4844C133.043 47.3047 132.715 47.9844 132.293 48.5234C131.871 49.0391 131.344 49.2969 130.711 49.2969C129.984 49.2969 129.305 49.1211 128.672 48.7695C128.039 48.418 127.441 47.9492 126.879 47.3633C126.34 46.7773 125.824 46.1328 125.332 45.4297C124.84 44.7031 124.383 43.9766 123.961 43.25C123.562 42.5 123.188 41.7969 122.836 41.1406C122.508 40.4609 122.215 39.8867 121.957 39.418C121.77 39.8398 121.594 40.3672 121.43 41C121.289 41.6328 121.125 42.3242 120.938 43.0742C120.75 43.8008 120.539 44.5391 120.305 45.2891C120.07 46.0156 119.801 46.6836 119.496 47.293C119.215 47.8789 118.875 48.3594 118.477 48.7344C118.102 49.1094 117.668 49.2969 117.176 49.2969C116.941 49.2969 116.73 49.3086 116.543 49.332C116.355 49.332 116.18 49.3203 116.016 49.2969C115.852 49.25 115.699 49.168 115.559 49.0508C115.418 48.9336 115.289 48.7461 115.172 48.4883L109.16 35.6562C109.16 35.6328 109.148 35.5391 109.125 35.375C109.102 35.1875 109.09 35.0469 109.09 34.9531ZM151.383 45.4648C150.492 46.0742 149.719 46.625 149.062 47.1172C148.43 47.5859 147.809 47.9844 147.199 48.3125C146.59 48.6406 145.934 48.8867 145.23 49.0508C144.551 49.2148 143.707 49.2969 142.699 49.2969C140.52 49.2969 138.902 48.7227 137.848 47.5742C136.793 46.4023 136.266 44.668 136.266 42.3711C136.266 41.4805 136.383 40.5547 136.617 39.5938C136.852 38.6328 137.191 37.6836 137.637 36.7461C138.105 35.7852 138.656 34.8828 139.289 34.0391C139.922 33.1719 140.637 32.4102 141.434 31.7539C142.23 31.0977 143.074 30.582 143.965 30.207C144.879 29.8086 145.84 29.6094 146.848 29.6094C148.535 29.7734 149.859 30.1953 150.82 30.875C151.781 31.5312 152.508 32.3867 153 33.4414C153.492 34.4727 153.832 35.6328 154.02 36.9219C154.207 38.1875 154.348 39.5 154.441 40.8594C154.559 42.2188 154.699 43.5781 154.863 44.9375C155.027 46.2969 155.367 47.5508 155.883 48.6992C155.578 49.4727 155.285 50.0117 155.004 50.3164C154.746 50.6445 154.453 50.7031 154.125 50.4922C153.797 50.2812 153.41 49.7656 152.965 48.9453C152.543 48.125 152.016 46.9648 151.383 45.4648ZM139.254 42.4414C139.254 43.7773 139.5 44.7617 139.992 45.3945C140.508 46.0039 141.41 46.3086 142.699 46.3086C143.66 46.3086 144.574 46.1445 145.441 45.8164C146.332 45.4648 147.105 44.9961 147.762 44.4102C148.418 43.8008 148.945 43.0742 149.344 42.2305C149.742 41.3867 149.941 40.4492 149.941 39.418C149.941 38.9961 149.953 38.4102 149.977 37.6602C150 36.8867 149.953 36.125 149.836 35.375C149.719 34.625 149.496 33.9805 149.168 33.4414C148.84 32.8789 148.348 32.5977 147.691 32.5977C146.473 32.5977 145.348 32.9141 144.316 33.5469C143.285 34.1562 142.395 34.9414 141.645 35.9023C140.895 36.8633 140.309 37.9297 139.887 39.1016C139.465 40.25 139.254 41.3633 139.254 42.4414ZM158.098 37.0273C158.098 34.7539 158.625 33.0664 159.68 31.9648C160.734 30.8633 162.352 30.3125 164.531 30.3125C165.422 30.3125 166.336 30.3945 167.273 30.5586C168.234 30.7227 169.113 31.0156 169.91 31.4375C170.707 31.8359 171.352 32.3984 171.844 33.125C172.359 33.8516 172.617 34.7891 172.617 35.9375C172.617 37.2031 172.336 38.3984 171.773 39.5234C171.234 40.625 170.543 41.668 169.699 42.6523C168.879 43.6133 167.965 44.5156 166.957 45.3594C165.973 46.1797 165.047 46.9648 164.18 47.7148C164.133 47.8086 164.086 48.0078 164.039 48.3125C164.016 48.5938 164.004 48.7812 164.004 48.875C164.004 49.6484 164.227 50.4219 164.672 51.1953C165.141 51.9922 165.645 52.7891 166.184 53.5859C166.723 54.4062 167.215 55.25 167.66 56.1172C168.105 56.9844 168.328 57.8867 168.328 58.8242C168.328 59.3867 168.211 59.7148 167.977 59.8086C167.742 59.9258 167.25 59.9844 166.5 59.9844C166.031 59.7969 165.562 59.3516 165.094 58.6484C164.648 57.9688 164.191 57.125 163.723 56.1172C163.277 55.1094 162.832 53.9727 162.387 52.707C161.965 51.4648 161.555 50.1992 161.156 48.9102C160.781 47.5977 160.418 46.3086 160.066 45.043C159.738 43.7539 159.445 42.5703 159.188 41.4922C158.93 40.4141 158.695 39.4883 158.484 38.7148C158.297 37.918 158.168 37.3555 158.098 37.0273ZM161.086 37.3438C161.086 37.6953 161.109 38.2109 161.156 38.8906C161.203 39.5469 161.297 40.2031 161.438 40.8594C161.602 41.5156 161.836 42.0898 162.141 42.582C162.445 43.0508 162.867 43.2852 163.406 43.2852C164.133 43.2852 164.859 43.0391 165.586 42.5469C166.336 42.0547 166.992 41.4336 167.555 40.6836C168.141 39.9336 168.609 39.1367 168.961 38.293C169.336 37.4258 169.523 36.6406 169.523 35.9375C169.523 35.3516 169.383 34.8945 169.102 34.5664C168.82 34.2148 168.457 33.9453 168.012 33.7578C167.59 33.5469 167.133 33.418 166.641 33.3711C166.148 33.3008 165.68 33.2656 165.234 33.2656C163.898 33.2656 162.867 33.6289 162.141 34.3555C161.438 35.0586 161.086 36.0547 161.086 37.3438Z" fill="#68BE3F"/>
</g>
<defs>
<filter id="filter0_i_3_66" x="0.351562" y="18.2539" width="172.266" height="45.7305" filterUnits="userSpaceOnUse" color-interpolation-filters="sRGB">
<feFlood flood-opacity="0" result="BackgroundImageFix"/>
<feBlend mode="normal" in="SourceGraphic" in2="BackgroundImageFix" result="shape"/>
<feColorMatrix in="SourceAlpha" type="matrix" values="0 0 0 0 0 0 0 0 0 0 0 0 0 0 0 0 0 0 127 0" result="hardAlpha"/>
<feOffset dy="4"/>
<feGaussianBlur stdDeviation="2"/>
<feComposite in2="hardAlpha" operator="arithmetic" k2="-1" k3="1"/>
<feColorMatrix type="matrix" values="0 0 0 0 0 0 0 0 0 0 0 0 0 0 0 0 0 0 0.25 0"/>
<feBlend mode="normal" in2="shape" result="effect1_innerShadow_3_66"/>
</filter>
</defs>
</svg>
