<svg width="320" height="50" viewBox="0 0 320 50" fill="none" xmlns="http://www.w3.org/2000/svg">
<path d="M320 0H0V50H320V0Z" fill="#333467"/>
<g filter="url(#filter0_i_1_7)">
<path d="M78.3438 30.6562C78.4479 30.1562 78.7083 29.75 79.125 29.4375C79.5625 29.1042 80.0521 28.8021 80.5938 28.5312C81.1562 28.2604 81.7396 28.0104 82.3438 27.7812C82.9479 27.5312 83.5 27.2708 84 27C84.5208 26.7292 84.9479 26.4167 85.2812 26.0625C85.6146 25.6875 85.7812 25.2396 85.7812 24.7188C85.7812 24.0521 85.6042 23.5 85.25 23.0625C84.9167 22.625 84.4583 22.25 83.875 21.9375C83.3125 21.625 82.6667 21.3646 81.9375 21.1562C81.2083 20.9479 80.4583 20.7396 79.6875 20.5312C78.9375 20.3021 78.1979 20.0625 77.4688 19.8125C76.7396 19.5417 76.0833 19.2083 75.5 18.8125C74.9375 18.4167 74.4792 17.9375 74.125 17.375C73.7917 16.8125 73.625 16.1146 73.625 15.2812C73.625 14.5938 73.7604 13.9479 74.0312 13.3438C74.3229 12.7188 74.6979 12.1354 75.1562 11.5938C75.6354 11.0312 76.1771 10.5208 76.7812 10.0625C77.4062 9.6042 78.0521 9.2188 78.7188 8.9062C79.4062 8.5938 80.0938 8.3542 80.7812 8.1875C81.4688 8 82.1042 7.9062 82.6875 7.9062H83.0312C83.2188 7.9688 83.4688 8.0729 83.7812 8.2188C84.0938 8.3646 84.3958 8.5104 84.6875 8.6562C84.9792 8.7812 85.2292 8.9062 85.4375 9.0312C85.6458 9.1354 85.75 9.1979 85.75 9.2188V9.9375C85.3542 9.9792 84.8438 10.0625 84.2188 10.1875C83.5938 10.2917 82.9375 10.4375 82.25 10.625C81.5625 10.8125 80.8646 11.0521 80.1562 11.3438C79.4479 11.6146 78.8125 11.9375 78.25 12.3125C77.6875 12.6875 77.2292 13.125 76.875 13.625C76.5208 14.1042 76.3438 14.6562 76.3438 15.2812C76.3438 16.1771 76.6562 16.8854 77.2812 17.4062C77.9062 17.9062 78.6875 18.3229 79.625 18.6562C80.5625 18.9896 81.5833 19.2917 82.6875 19.5625C83.8125 19.8125 84.8438 20.125 85.7812 20.5C86.7188 20.8542 87.5 21.3333 88.125 21.9375C88.75 22.5208 89.0625 23.3125 89.0625 24.3125C89.0625 24.8542 88.8958 25.4271 88.5625 26.0312C88.25 26.6146 87.8229 27.1979 87.2812 27.7812C86.7604 28.3438 86.1667 28.8854 85.5 29.4062C84.8333 29.9271 84.1458 30.3854 83.4375 30.7812C82.75 31.1562 82.0729 31.4688 81.4062 31.7188C80.7396 31.9479 80.1458 32.0625 79.625 32.0625C79.4583 32.0625 79.2812 32.0417 79.0938 32C78.9062 31.9583 78.7396 31.8958 78.5938 31.8125C78.4688 31.7083 78.3646 31.5625 78.2812 31.375C78.2188 31.1875 78.2396 30.9479 78.3438 30.6562ZM89.6562 16.25C89.6562 16.1875 89.6667 16.1354 89.6875 16.0938C89.6875 16.0521 89.6979 16 89.7188 15.9375C89.8021 15.8333 89.9271 15.6979 90.0938 15.5312C90.2604 15.3646 90.3646 15.2812 90.4062 15.2812H96.6875C96.6875 15.0521 96.6562 14.6875 96.5938 14.1875C96.5312 13.6875 96.4688 13.1354 96.4062 12.5312C96.3646 11.9271 96.3542 11.3021 96.375 10.6562C96.3958 9.9896 96.4792 9.3958 96.625 8.875C96.7917 8.3333 97.0417 7.8958 97.375 7.5625C97.7292 7.2083 98.2188 7.0312 98.8438 7.0312C98.8438 9.1354 98.9896 10.8229 99.2812 12.0938C99.5729 13.3646 99.9583 14.3438 100.438 15.0312C100.938 15.7188 101.5 16.1667 102.125 16.375C102.75 16.5833 103.385 16.6771 104.031 16.6562C104.698 16.6146 105.344 16.5104 105.969 16.3438C106.594 16.1771 107.146 16.0625 107.625 16C108.125 15.9375 108.521 15.9896 108.812 16.1562C109.104 16.3021 109.25 16.6667 109.25 17.25C109.25 17.6875 109.146 18 108.938 18.1875C108.75 18.375 108.375 18.5208 107.812 18.625C107.646 18.6458 107.365 18.6875 106.969 18.75C106.594 18.7917 106.167 18.8333 105.688 18.875C105.208 18.9167 104.698 18.9688 104.156 19.0312C103.615 19.0729 103.104 19.1146 102.625 19.1562C102.146 19.1979 101.708 19.2292 101.312 19.25C100.917 19.25 100.625 19.25 100.438 19.25C100.438 19.3542 100.427 19.5312 100.406 19.7812C100.385 20.0312 100.375 20.1979 100.375 20.2812C100.375 21.1979 100.521 22.0938 100.812 22.9688C101.104 23.8229 101.417 24.6771 101.75 25.5312C102.104 26.3854 102.427 27.2396 102.719 28.0938C103.01 28.9479 103.156 29.8333 103.156 30.75C103.156 30.9167 103.135 31.0938 103.094 31.2812C103.073 31.4479 103.01 31.6042 102.906 31.75C102.823 31.875 102.688 31.9688 102.5 32.0312C102.333 32.1146 102.094 32.1042 101.781 32C100.99 31.7917 100.396 31.3438 100 30.6562C99.625 29.9688 99.3438 29.1562 99.1562 28.2188C98.9688 27.2604 98.8438 26.25 98.7812 25.1875C98.7188 24.125 98.6146 23.1354 98.4688 22.2188C98.3438 21.2812 98.1354 20.4896 97.8438 19.8438C97.5521 19.1771 97.0833 18.7708 96.4375 18.625L90.4062 17.25C90.3229 17.25 90.1979 17.1667 90.0312 17C89.8646 16.8125 89.7604 16.6771 89.7188 16.5938C89.6979 16.5521 89.6875 16.5 89.6875 16.4375C89.6667 16.3958 89.6562 16.3333 89.6562 16.25ZM110.438 23.3125C110.438 22.1875 110.573 21.0625 110.844 19.9375C111.115 18.8125 111.542 17.8021 112.125 16.9062C112.729 16.0104 113.5 15.2812 114.438 14.7188C115.396 14.1562 116.552 13.875 117.906 13.875C118.677 13.875 119.354 14.0208 119.938 14.3125C120.521 14.5833 121.01 14.9479 121.406 15.4062C121.802 15.8646 122.094 16.4062 122.281 17.0312C122.49 17.6354 122.594 18.2708 122.594 18.9375C122.594 20 122.344 21.0312 121.844 22.0312C121.365 23.0312 120.708 23.9167 119.875 24.6875C119.062 25.4375 118.125 26.0104 117.062 26.4062C116 26.7812 114.917 26.8646 113.812 26.6562C113.833 27.2604 114.031 27.75 114.406 28.125C114.802 28.4792 115.271 28.75 115.812 28.9375C116.354 29.125 116.917 29.25 117.5 29.3125C118.083 29.3542 118.604 29.375 119.062 29.375C119.542 29.375 119.99 29.3333 120.406 29.25C120.823 29.1667 121.24 29.0729 121.656 28.9688C122.073 28.8646 122.49 28.7708 122.906 28.6875C123.344 28.6042 123.802 28.5625 124.281 28.5625C124.469 28.5625 124.656 28.5729 124.844 28.5938C125.031 28.6146 125.208 28.6667 125.375 28.75C125.542 28.8125 125.677 28.9271 125.781 29.0938C125.885 29.2396 125.938 29.4271 125.938 29.6562C125.938 30.0521 125.792 30.3854 125.5 30.6562C125.208 30.9062 124.833 31.125 124.375 31.3125C123.938 31.5 123.448 31.6458 122.906 31.75C122.365 31.8333 121.833 31.9062 121.312 31.9688C120.812 32.0104 120.344 32.0312 119.906 32.0312C119.49 32.0521 119.177 32.0625 118.969 32.0625C117.635 32.0625 116.438 31.8542 115.375 31.4375C114.312 31 113.417 30.4062 112.688 29.6562C111.958 28.8854 111.396 27.9688 111 26.9062C110.625 25.8229 110.438 24.625 110.438 23.3125ZM113.75 21.2812C113.75 22.0104 113.844 22.5417 114.031 22.875C114.24 23.2083 114.729 23.375 115.5 23.375C116.042 23.375 116.573 23.2812 117.094 23.0938C117.615 22.8854 118.083 22.6042 118.5 22.25C118.938 21.8958 119.281 21.4792 119.531 21C119.781 20.5208 119.906 20 119.906 19.4375C119.906 19.125 119.875 18.8021 119.812 18.4688C119.771 18.1354 119.667 17.8333 119.5 17.5625C119.333 17.2708 119.115 17.0417 118.844 16.875C118.594 16.6875 118.26 16.5938 117.844 16.5938C117.219 16.5938 116.646 16.7396 116.125 17.0312C115.625 17.3021 115.198 17.6667 114.844 18.125C114.49 18.5625 114.219 19.0625 114.031 19.625C113.844 20.1667 113.75 20.7188 113.75 21.2812ZM133.938 31.375C133.604 31.6667 133.25 31.5312 132.875 30.9688C132.521 30.4062 132.156 29.5625 131.781 28.4375C131.406 27.2917 131.031 25.9271 130.656 24.3438C130.302 22.7604 129.958 21.0833 129.625 19.3125C129.292 17.5417 128.969 15.75 128.656 13.9375C128.365 12.1042 128.104 10.3854 127.875 8.7812C127.875 8.4896 127.865 8.1979 127.844 7.9062C127.844 7.5938 127.875 7.3125 127.938 7.0625C128.021 6.7917 128.156 6.5521 128.344 6.3438C128.552 6.1354 128.865 5.9792 129.281 5.875C129.323 5.8542 129.406 5.875 129.531 5.9375C129.677 5.9792 129.823 6.0417 129.969 6.125C130.115 6.1875 130.24 6.2604 130.344 6.3438C130.469 6.4271 130.552 6.5 130.594 6.5625C130.323 10.4583 130.771 14.25 131.938 17.9375C132 17.875 132.167 17.6667 132.438 17.3125C132.708 16.9375 133.052 16.5104 133.469 16.0312C133.885 15.5312 134.354 15 134.875 14.4375C135.417 13.875 135.979 13.3542 136.562 12.875C137.146 12.3958 137.729 12 138.312 11.6875C138.896 11.3542 139.458 11.1875 140 11.1875C140.312 11.1875 140.615 11.2604 140.906 11.4062C141.219 11.5521 141.375 11.8333 141.375 12.25C141.375 12.2917 141.365 12.3542 141.344 12.4375C141.323 12.5 141.312 12.5521 141.312 12.5938C140.979 12.8854 140.469 13.3333 139.781 13.9375C139.115 14.5417 138.406 15.2188 137.656 15.9688C136.906 16.7188 136.188 17.5 135.5 18.3125C134.812 19.125 134.292 19.8958 133.938 20.625C133.875 20.75 133.854 20.8646 133.875 20.9688C133.896 21.0521 133.917 21.1562 133.938 21.2812C134.167 21.3646 134.531 21.4896 135.031 21.6562C135.531 21.8229 136.083 22.0208 136.688 22.25C137.292 22.4583 137.938 22.6875 138.625 22.9375C139.312 23.1667 139.958 23.3958 140.562 23.625C141.167 23.8542 141.708 24.0625 142.188 24.25C142.688 24.4167 143.062 24.5417 143.312 24.625C143.604 24.75 143.844 24.8333 144.031 24.875C144.219 24.9167 144.365 24.9792 144.469 25.0625C144.573 25.125 144.646 25.2188 144.688 25.3438C144.729 25.4688 144.75 25.6562 144.75 25.9062C144.75 26.5104 144.604 26.9062 144.312 27.0938C144.021 27.2812 143.604 27.375 143.062 27.375C141.458 27.2708 139.885 26.9375 138.344 26.375C136.802 25.7917 135.24 25.0938 133.656 24.2812C133.594 24.6771 133.615 25.1354 133.719 25.6562C133.844 26.1771 133.99 26.6979 134.156 27.2188C134.323 27.7396 134.479 28.25 134.625 28.75C134.792 29.25 134.885 29.6979 134.906 30.0938C134.948 30.4896 134.906 30.8021 134.781 31.0312C134.656 31.2604 134.375 31.375 133.938 31.375ZM138.562 41.8438C139.167 41.8438 139.719 42 140.219 42.3125C140.719 42.625 141.25 42.9583 141.812 43.3125C142.354 43.6875 142.948 44.0312 143.594 44.3438C144.24 44.6562 144.99 44.8125 145.844 44.8125C146.698 44.8125 147.531 44.6979 148.344 44.4688C149.156 44.2604 149.885 43.9271 150.531 43.4688C151.177 43.0312 151.698 42.4479 152.094 41.7188C152.49 41.0104 152.688 40.1667 152.688 39.1875C152.688 37.5625 152.552 35.875 152.281 34.125C152.031 32.375 151.698 30.6354 151.281 28.9062C150.885 27.1562 150.448 25.4583 149.969 23.8125C149.51 22.1667 149.083 20.6458 148.688 19.25C148.688 19.2292 148.677 19.1771 148.656 19.0938C148.635 19.0104 148.625 18.9583 148.625 18.9375C148.625 18.5208 148.771 18.2396 149.062 18.0938C149.354 17.9271 149.667 17.8438 150 17.8438C150.083 17.8438 150.208 17.8542 150.375 17.875C150.542 17.8958 150.646 17.9062 150.688 17.9062C151.333 19.5312 151.938 21.1979 152.5 22.9062C153.083 24.5938 153.594 26.3125 154.031 28.0625C154.469 29.8125 154.812 31.5625 155.062 33.3125C155.312 35.0833 155.438 36.8333 155.438 38.5625C155.438 39.9167 155.198 41.1458 154.719 42.25C154.26 43.3542 153.615 44.2917 152.781 45.0625C151.948 45.8333 150.948 46.4271 149.781 46.8438C148.635 47.2604 147.385 47.4688 146.031 47.4688C145.135 47.4688 144.25 47.3646 143.375 47.1562C142.479 46.9688 141.677 46.6562 140.969 46.2188C140.24 45.7812 139.656 45.1979 139.219 44.4688C138.781 43.7604 138.562 42.8854 138.562 41.8438ZM145.906 10.2188C145.906 10.1562 145.906 10.0312 145.906 9.8438C145.906 9.6562 145.927 9.4688 145.969 9.2812C146.01 9.0729 146.083 8.8958 146.188 8.75C146.292 8.6042 146.448 8.5312 146.656 8.5312C147.01 8.5312 147.281 8.5833 147.469 8.6875C147.656 8.7708 147.792 8.8854 147.875 9.0312C147.958 9.1562 148.01 9.3229 148.031 9.5312C148.052 9.7188 148.062 9.9375 148.062 10.1875C148.062 10.3542 148.052 10.5417 148.031 10.75C148.01 10.9583 147.969 11.1562 147.906 11.3438C147.844 11.5312 147.74 11.6875 147.594 11.8125C147.448 11.9167 147.25 11.9688 147 11.9688C146.75 11.9688 146.552 11.9167 146.406 11.8125C146.26 11.6875 146.146 11.5417 146.062 11.375C146 11.2083 145.958 11.0208 145.938 10.8125C145.917 10.6042 145.906 10.4062 145.906 10.2188ZM155.375 23.3125C155.375 22.1875 155.51 21.0625 155.781 19.9375C156.052 18.8125 156.479 17.8021 157.062 16.9062C157.667 16.0104 158.438 15.2812 159.375 14.7188C160.333 14.1562 161.49 13.875 162.844 13.875C163.615 13.875 164.292 14.0208 164.875 14.3125C165.458 14.5833 165.948 14.9479 166.344 15.4062C166.74 15.8646 167.031 16.4062 167.219 17.0312C167.427 17.6354 167.531 18.2708 167.531 18.9375C167.531 20 167.281 21.0312 166.781 22.0312C166.302 23.0312 165.646 23.9167 164.812 24.6875C164 25.4375 163.062 26.0104 162 26.4062C160.938 26.7812 159.854 26.8646 158.75 26.6562C158.771 27.2604 158.969 27.75 159.344 28.125C159.74 28.4792 160.208 28.75 160.75 28.9375C161.292 29.125 161.854 29.25 162.438 29.3125C163.021 29.3542 163.542 29.375 164 29.375C164.479 29.375 164.927 29.3333 165.344 29.25C165.76 29.1667 166.177 29.0729 166.594 28.9688C167.01 28.8646 167.427 28.7708 167.844 28.6875C168.281 28.6042 168.74 28.5625 169.219 28.5625C169.406 28.5625 169.594 28.5729 169.781 28.5938C169.969 28.6146 170.146 28.6667 170.312 28.75C170.479 28.8125 170.615 28.9271 170.719 29.0938C170.823 29.2396 170.875 29.4271 170.875 29.6562C170.875 30.0521 170.729 30.3854 170.438 30.6562C170.146 30.9062 169.771 31.125 169.312 31.3125C168.875 31.5 168.385 31.6458 167.844 31.75C167.302 31.8333 166.771 31.9062 166.25 31.9688C165.75 32.0104 165.281 32.0312 164.844 32.0312C164.427 32.0521 164.115 32.0625 163.906 32.0625C162.573 32.0625 161.375 31.8542 160.312 31.4375C159.25 31 158.354 30.4062 157.625 29.6562C156.896 28.8854 156.333 27.9688 155.938 26.9062C155.562 25.8229 155.375 24.625 155.375 23.3125ZM158.688 21.2812C158.688 22.0104 158.781 22.5417 158.969 22.875C159.177 23.2083 159.667 23.375 160.438 23.375C160.979 23.375 161.51 23.2812 162.031 23.0938C162.552 22.8854 163.021 22.6042 163.438 22.25C163.875 21.8958 164.219 21.4792 164.469 21C164.719 20.5208 164.844 20 164.844 19.4375C164.844 19.125 164.812 18.8021 164.75 18.4688C164.708 18.1354 164.604 17.8333 164.438 17.5625C164.271 17.2708 164.052 17.0417 163.781 16.875C163.531 16.6875 163.198 16.5938 162.781 16.5938C162.156 16.5938 161.583 16.7396 161.062 17.0312C160.562 17.3021 160.135 17.6667 159.781 18.125C159.427 18.5625 159.156 19.0625 158.969 19.625C158.781 20.1667 158.688 20.7188 158.688 21.2812ZM178.812 30.5938C179.146 30.3646 179.542 30.0729 180 29.7188C180.479 29.3438 180.958 28.9479 181.438 28.5312C181.917 28.1146 182.365 27.6771 182.781 27.2188C183.198 26.7604 183.521 26.3229 183.75 25.9062C184 25.4688 184.125 25.0625 184.125 24.6875C184.125 24.3125 183.938 24 183.562 23.75C182.896 23.75 182.167 23.7812 181.375 23.8438C180.583 23.8854 179.792 23.9062 179 23.9062C178.208 23.8854 177.438 23.8125 176.688 23.6875C175.958 23.5625 175.302 23.3333 174.719 23C174.135 22.6667 173.667 22.1979 173.312 21.5938C172.979 20.9688 172.812 20.1771 172.812 19.2188C172.812 18.0938 173.021 17.0833 173.438 16.1875C173.875 15.2708 174.448 14.4688 175.156 13.7812C175.865 13.0729 176.656 12.4583 177.531 11.9375C178.427 11.3958 179.323 10.9375 180.219 10.5625C180.76 10.7083 181.26 10.9688 181.719 11.3438C182.177 11.7188 182.573 12.1354 182.906 12.5938C182.76 13.0521 182.469 13.4062 182.031 13.6562C181.615 13.9062 181.125 14.125 180.562 14.3125C180.021 14.5 179.448 14.6979 178.844 14.9062C178.24 15.1146 177.688 15.3958 177.188 15.75C176.708 16.0833 176.302 16.5312 175.969 17.0938C175.635 17.6354 175.469 18.3542 175.469 19.25C175.469 19.9167 175.635 20.4062 175.969 20.7188C176.302 21.0312 176.74 21.25 177.281 21.375C177.823 21.4792 178.438 21.5208 179.125 21.5C179.812 21.4583 180.51 21.4062 181.219 21.3438C181.948 21.2812 182.656 21.25 183.344 21.25C184.031 21.2292 184.646 21.3125 185.188 21.5C185.729 21.6667 186.156 21.9479 186.469 22.3438C186.802 22.7396 186.969 23.3229 186.969 24.0938C186.969 24.4271 186.854 24.8542 186.625 25.375C186.417 25.8958 186.125 26.4583 185.75 27.0625C185.396 27.6458 184.969 28.2292 184.469 28.8125C183.99 29.3958 183.479 29.9271 182.938 30.4062C182.417 30.8646 181.885 31.25 181.344 31.5625C180.823 31.8542 180.333 32 179.875 32C179.438 32 179.146 31.8438 179 31.5312C178.875 31.2188 178.812 30.9062 178.812 30.5938ZM192.938 30.6562C192.292 28.7812 191.677 27.0312 191.094 25.4062C190.531 23.7604 190.031 22.1562 189.594 20.5938C189.177 19.0104 188.844 17.4062 188.594 15.7812C188.344 14.1562 188.219 12.4167 188.219 10.5625C188.219 10.4167 188.219 10.1562 188.219 9.7812C188.24 9.3854 188.25 8.9792 188.25 8.5625C188.25 8.1458 188.25 7.75 188.25 7.375C188.271 6.9792 188.281 6.7083 188.281 6.5625C188.469 6.1458 188.792 5.7604 189.25 5.4062C189.729 5.0521 190.208 4.875 190.688 4.875C190.688 6.4167 190.708 8.0625 190.75 9.8125C190.792 11.5417 190.917 13.2708 191.125 15C191.354 16.7292 191.708 18.4271 192.188 20.0938C192.688 21.7396 193.385 23.25 194.281 24.625C194.302 24.125 194.323 23.5729 194.344 22.9688C194.365 22.3646 194.417 21.7604 194.5 21.1562C194.604 20.5521 194.76 19.9688 194.969 19.4062C195.177 18.8438 195.479 18.3438 195.875 17.9062C196.292 17.4688 196.823 17.125 197.469 16.875C198.135 16.625 198.969 16.5104 199.969 16.5312C200.865 16.5312 201.667 16.6979 202.375 17.0312C203.104 17.3646 203.708 17.8229 204.188 18.4062C204.688 18.9688 205.062 19.6354 205.312 20.4062C205.583 21.1562 205.719 21.9583 205.719 22.8125C205.719 23.9583 205.438 25.0833 204.875 26.1875C204.312 27.2917 203.562 28.2812 202.625 29.1562C201.708 30.0312 200.677 30.7396 199.531 31.2812C198.385 31.8021 197.219 32.0625 196.031 32.0625C195.427 32.0625 194.844 31.9583 194.281 31.75C193.719 31.5208 193.271 31.1562 192.938 30.6562ZM200.344 19.25C199.927 19.4792 199.49 19.75 199.031 20.0625C198.573 20.375 198.146 20.8646 197.75 21.5312C197.375 22.1771 197.052 23.0625 196.781 24.1875C196.51 25.3125 196.344 26.8021 196.281 28.6562C196.323 28.6562 196.427 28.6667 196.594 28.6875C196.781 28.7083 196.906 28.7188 196.969 28.7188C197.531 28.7188 198.167 28.5417 198.875 28.1875C199.604 27.8333 200.302 27.3958 200.969 26.875C201.656 26.3542 202.25 25.7812 202.75 25.1562C203.25 24.5104 203.552 23.8958 203.656 23.3125C203.719 22.9583 203.646 22.5521 203.438 22.0938C203.229 21.6354 202.948 21.1979 202.594 20.7812C202.26 20.3438 201.885 19.9792 201.469 19.6875C201.073 19.3958 200.698 19.25 200.344 19.25ZM208.938 20.2812C208.938 20.1562 208.938 19.9583 208.938 19.6875C208.958 19.3958 208.969 19.0938 208.969 18.7812C208.99 18.4688 209 18.1667 209 17.875C209.021 17.5833 209.031 17.375 209.031 17.25C209.26 16.9167 209.552 16.6458 209.906 16.4375C210.281 16.2292 210.656 16.0625 211.031 15.9375C211.094 17.0625 211.271 18.2604 211.562 19.5312C211.854 20.8021 212.167 22.0833 212.5 23.375C212.833 24.6458 213.125 25.9062 213.375 27.1562C213.646 28.4062 213.781 29.5729 213.781 30.6562C213.781 31.5938 213.302 32.0625 212.344 32.0625C211.76 32.0625 211.271 31.8229 210.875 31.3438C210.479 30.8646 210.156 30.2604 209.906 29.5312C209.677 28.7812 209.49 27.9583 209.344 27.0625C209.198 26.1458 209.094 25.25 209.031 24.375C208.99 23.5 208.958 22.6979 208.938 21.9688C208.938 21.2396 208.938 20.6771 208.938 20.2812ZM209.375 8.5625C209.771 8.7292 210.104 9 210.375 9.375C210.646 9.75 210.76 10.0938 210.719 10.4062C210.698 10.6979 210.469 10.9062 210.031 11.0312C209.594 11.1354 208.865 11.0104 207.844 10.6562C207.844 10.0938 207.948 9.6042 208.156 9.1875C208.385 8.7708 208.792 8.5625 209.375 8.5625ZM215 23.3125C215 22.1875 215.135 21.0625 215.406 19.9375C215.677 18.8125 216.104 17.8021 216.688 16.9062C217.292 16.0104 218.062 15.2812 219 14.7188C219.958 14.1562 221.115 13.875 222.469 13.875C223.24 13.875 223.917 14.0208 224.5 14.3125C225.083 14.5833 225.573 14.9479 225.969 15.4062C226.365 15.8646 226.656 16.4062 226.844 17.0312C227.052 17.6354 227.156 18.2708 227.156 18.9375C227.156 20 226.906 21.0312 226.406 22.0312C225.927 23.0312 225.271 23.9167 224.438 24.6875C223.625 25.4375 222.688 26.0104 221.625 26.4062C220.562 26.7812 219.479 26.8646 218.375 26.6562C218.396 27.2604 218.594 27.75 218.969 28.125C219.365 28.4792 219.833 28.75 220.375 28.9375C220.917 29.125 221.479 29.25 222.062 29.3125C222.646 29.3542 223.167 29.375 223.625 29.375C224.104 29.375 224.552 29.3333 224.969 29.25C225.385 29.1667 225.802 29.0729 226.219 28.9688C226.635 28.8646 227.052 28.7708 227.469 28.6875C227.906 28.6042 228.365 28.5625 228.844 28.5625C229.031 28.5625 229.219 28.5729 229.406 28.5938C229.594 28.6146 229.771 28.6667 229.938 28.75C230.104 28.8125 230.24 28.9271 230.344 29.0938C230.448 29.2396 230.5 29.4271 230.5 29.6562C230.5 30.0521 230.354 30.3854 230.062 30.6562C229.771 30.9062 229.396 31.125 228.938 31.3125C228.5 31.5 228.01 31.6458 227.469 31.75C226.927 31.8333 226.396 31.9062 225.875 31.9688C225.375 32.0104 224.906 32.0312 224.469 32.0312C224.052 32.0521 223.74 32.0625 223.531 32.0625C222.198 32.0625 221 31.8542 219.938 31.4375C218.875 31 217.979 30.4062 217.25 29.6562C216.521 28.8854 215.958 27.9688 215.562 26.9062C215.188 25.8229 215 24.625 215 23.3125ZM218.312 21.2812C218.312 22.0104 218.406 22.5417 218.594 22.875C218.802 23.2083 219.292 23.375 220.062 23.375C220.604 23.375 221.135 23.2812 221.656 23.0938C222.177 22.8854 222.646 22.6042 223.062 22.25C223.5 21.8958 223.844 21.4792 224.094 21C224.344 20.5208 224.469 20 224.469 19.4375C224.469 19.125 224.438 18.8021 224.375 18.4688C224.333 18.1354 224.229 17.8333 224.062 17.5625C223.896 17.2708 223.677 17.0417 223.406 16.875C223.156 16.6875 222.823 16.5938 222.406 16.5938C221.781 16.5938 221.208 16.7396 220.688 17.0312C220.188 17.3021 219.76 17.6667 219.406 18.125C219.052 18.5625 218.781 19.0625 218.594 19.625C218.406 20.1667 218.312 20.7188 218.312 21.2812ZM237.156 30.6562C236.51 28.7812 235.896 27.0312 235.312 25.4062C234.75 23.7604 234.25 22.1562 233.812 20.5938C233.396 19.0104 233.062 17.4062 232.812 15.7812C232.562 14.1562 232.438 12.4167 232.438 10.5625C232.438 10.4167 232.438 10.1562 232.438 9.7812C232.458 9.3854 232.469 8.9792 232.469 8.5625C232.469 8.1458 232.469 7.75 232.469 7.375C232.49 6.9792 232.5 6.7083 232.5 6.5625C232.688 6.1458 233.01 5.7604 233.469 5.4062C233.948 5.0521 234.427 4.875 234.906 4.875C234.906 6.4167 234.927 8.0625 234.969 9.8125C235.01 11.5417 235.135 13.2708 235.344 15C235.573 16.7292 235.927 18.4271 236.406 20.0938C236.906 21.7396 237.604 23.25 238.5 24.625C238.521 24.125 238.542 23.5729 238.562 22.9688C238.583 22.3646 238.635 21.7604 238.719 21.1562C238.823 20.5521 238.979 19.9688 239.188 19.4062C239.396 18.8438 239.698 18.3438 240.094 17.9062C240.51 17.4688 241.042 17.125 241.688 16.875C242.354 16.625 243.188 16.5104 244.188 16.5312C245.083 16.5312 245.885 16.6979 246.594 17.0312C247.323 17.3646 247.927 17.8229 248.406 18.4062C248.906 18.9688 249.281 19.6354 249.531 20.4062C249.802 21.1562 249.938 21.9583 249.938 22.8125C249.938 23.9583 249.656 25.0833 249.094 26.1875C248.531 27.2917 247.781 28.2812 246.844 29.1562C245.927 30.0312 244.896 30.7396 243.75 31.2812C242.604 31.8021 241.438 32.0625 240.25 32.0625C239.646 32.0625 239.062 31.9583 238.5 31.75C237.938 31.5208 237.49 31.1562 237.156 30.6562ZM244.562 19.25C244.146 19.4792 243.708 19.75 243.25 20.0625C242.792 20.375 242.365 20.8646 241.969 21.5312C241.594 22.1771 241.271 23.0625 241 24.1875C240.729 25.3125 240.562 26.8021 240.5 28.6562C240.542 28.6562 240.646 28.6667 240.812 28.6875C241 28.7083 241.125 28.7188 241.188 28.7188C241.75 28.7188 242.385 28.5417 243.094 28.1875C243.823 27.8333 244.521 27.3958 245.188 26.875C245.875 26.3542 246.469 25.7812 246.969 25.1562C247.469 24.5104 247.771 23.8958 247.875 23.3125C247.938 22.9583 247.865 22.5521 247.656 22.0938C247.448 21.6354 247.167 21.1979 246.812 20.7812C246.479 20.3438 246.104 19.9792 245.688 19.6875C245.292 19.3958 244.917 19.25 244.562 19.25Z" fill="#68BE3F"/>
</g>
<defs>
<filter id="filter0_i_1_7" x="73.625" y="4.875" width="176.313" height="46.5938" filterUnits="userSpaceOnUse" color-interpolation-filters="sRGB">
<feFlood flood-opacity="0" result="BackgroundImageFix"/>
<feBlend mode="normal" in="SourceGraphic" in2="BackgroundImageFix" result="shape"/>
<feColorMatrix in="SourceAlpha" type="matrix" values="0 0 0 0 0 0 0 0 0 0 0 0 0 0 0 0 0 0 127 0" result="hardAlpha"/>
<feOffset dy="4"/>
<feGaussianBlur stdDeviation="2"/>
<feComposite in2="hardAlpha" operator="arithmetic" k2="-1" k3="1"/>
<feColorMatrix type="matrix" values="0 0 0 0 0 0 0 0 0 0 0 0 0 0 0 0 0 0 0.25 0"/>
<feBlend mode="normal" in2="shape" result="effect1_innerShadow_1_7"/>
</filter>
</defs>
</svg>
